<svg width="441" height="437" viewBox="0 0 441 437" fill="none" xmlns="http://www.w3.org/2000/svg">
<rect x="0.84375" y="0.643066" width="440" height="436" rx="4" fill="#97D64A"/>
<mask id="mask0" mask-type="alpha" maskUnits="userSpaceOnUse" x="0" y="0" width="441" height="437">
<rect x="0.84375" y="0.643066" width="440" height="436" rx="4" fill="#E9E9E9"/>
</mask>
<g mask="url(#mask0)">
<circle cx="384.313" cy="426.643" r="148.469" stroke="white" stroke-opacity="0.2" stroke-width="50"/>
<rect x="-274.489" y="350.454" width="295.626" height="295.626" transform="rotate(-55.961 -274.489 350.454)" stroke="white" stroke-opacity="0.08" stroke-width="50"/>
</g>
<path d="M50.624 53.5391C52.232 53.9711 53.456 54.7151 54.296 55.7711C55.136 56.8031 55.556 58.0991 55.556 59.6591C55.556 61.8671 54.74 63.5831 53.108 64.8071C51.476 66.0311 49.112 66.6431 46.016 66.6431H34.064V41.4431H45.332C48.164 41.4431 50.372 42.0071 51.956 43.1351C53.54 44.2631 54.332 45.8591 54.332 47.9231C54.332 49.2431 54.008 50.3831 53.36 51.3431C52.736 52.3031 51.824 53.0351 50.624 53.5391ZM38.672 52.2071H44.936C46.448 52.2071 47.6 51.9071 48.392 51.3071C49.184 50.7071 49.58 49.8191 49.58 48.6431C49.58 47.4671 49.184 46.5791 48.392 45.9791C47.6 45.3551 46.448 45.0431 44.936 45.0431H38.672V52.2071ZM45.872 63.0431C49.184 63.0431 50.84 61.7951 50.84 59.2991C50.84 56.8511 49.184 55.6271 45.872 55.6271H38.672V63.0431H45.872ZM71.0394 47.2031C72.9114 47.2031 74.5794 47.6111 76.0434 48.4271C77.5314 49.2431 78.6954 50.3951 79.5354 51.8831C80.3754 53.3711 80.7954 55.0871 80.7954 57.0311C80.7954 58.9751 80.3754 60.7031 79.5354 62.2151C78.6954 63.7031 77.5314 64.8551 76.0434 65.6711C74.5794 66.4871 72.9114 66.8951 71.0394 66.8951C68.4474 66.8951 66.3954 66.0311 64.8834 64.3031V73.6271H60.3834V47.4191H64.6674V49.9391C65.4114 49.0271 66.3234 48.3431 67.4034 47.8871C68.5074 47.4311 69.7194 47.2031 71.0394 47.2031ZM70.5354 63.0431C72.1914 63.0431 73.5474 62.4911 74.6034 61.3871C75.6834 60.2831 76.2234 58.8311 76.2234 57.0311C76.2234 55.2311 75.6834 53.7791 74.6034 52.6751C73.5474 51.5711 72.1914 51.0191 70.5354 51.0191C69.4554 51.0191 68.4834 51.2711 67.6194 51.7751C66.7554 52.2551 66.0714 52.9511 65.5674 53.8631C65.0634 54.7751 64.8114 55.8311 64.8114 57.0311C64.8114 58.2311 65.0634 59.2871 65.5674 60.1991C66.0714 61.1111 66.7554 61.8191 67.6194 62.3231C68.4834 62.8031 69.4554 63.0431 70.5354 63.0431ZM103.274 57.1391C103.274 57.4511 103.25 57.8951 103.202 58.4711H88.118C88.382 59.8871 89.066 61.0151 90.17 61.8551C91.298 62.6711 92.69 63.0791 94.346 63.0791C96.458 63.0791 98.198 62.3831 99.566 60.9911L101.978 63.7631C101.114 64.7951 100.022 65.5751 98.702 66.1031C97.382 66.6311 95.894 66.8951 94.238 66.8951C92.126 66.8951 90.266 66.4751 88.658 65.6351C87.05 64.7951 85.802 63.6311 84.914 62.1431C84.05 60.6311 83.618 58.9271 83.618 57.0311C83.618 55.1591 84.038 53.4791 84.878 51.9911C85.742 50.4791 86.93 49.3031 88.442 48.4631C89.954 47.6231 91.658 47.2031 93.554 47.2031C95.426 47.2031 97.094 47.6231 98.558 48.4631C100.046 49.2791 101.198 50.4431 102.014 51.9551C102.854 53.4431 103.274 55.1711 103.274 57.1391ZM93.554 50.8031C92.114 50.8031 90.89 51.2351 89.882 52.0991C88.898 52.9391 88.298 54.0671 88.082 55.4831H98.99C98.798 54.0911 98.21 52.9631 97.226 52.0991C96.242 51.2351 95.018 50.8031 93.554 50.8031ZM127.096 66.6431V53.8991L120.616 64.6271H118.672L112.3 53.8631V66.6431H108.196V47.4191H112.912L119.752 59.4431L126.916 47.4191H131.128L131.164 66.6431H127.096ZM153.436 47.4191V66.6431H149.404V60.8471H144.328L140.404 66.6431H135.58L140.116 60.2351C138.724 59.7551 137.656 59.0231 136.912 58.0391C136.192 57.0311 135.832 55.7951 135.832 54.3311C135.832 52.1231 136.612 50.4191 138.172 49.2191C139.732 48.0191 141.88 47.4191 144.616 47.4191H153.436ZM144.76 51.1991C141.856 51.1991 140.404 52.2911 140.404 54.4751C140.404 56.6351 141.808 57.7151 144.616 57.7151H149.404V51.1991H144.76ZM189.958 62.8271V70.9271H185.746V66.6431H170.914V70.9271H166.738V62.8271H167.638C168.862 62.7791 169.69 61.9991 170.122 60.4871C170.578 58.9511 170.878 56.7911 171.022 54.0071L171.274 47.4191H187.114V62.8271H189.958ZM175.126 54.3311C175.03 56.5391 174.85 58.3391 174.586 59.7311C174.322 61.1231 173.842 62.1551 173.146 62.8271H182.614V51.2351H175.234L175.126 54.3311ZM211.977 57.1391C211.977 57.4511 211.953 57.8951 211.905 58.4711H196.821C197.085 59.8871 197.769 61.0151 198.873 61.8551C200.001 62.6711 201.393 63.0791 203.049 63.0791C205.161 63.0791 206.901 62.3831 208.269 60.9911L210.681 63.7631C209.817 64.7951 208.725 65.5751 207.405 66.1031C206.085 66.6311 204.597 66.8951 202.941 66.8951C200.829 66.8951 198.969 66.4751 197.361 65.6351C195.753 64.7951 194.505 63.6311 193.617 62.1431C192.753 60.6311 192.321 58.9271 192.321 57.0311C192.321 55.1591 192.741 53.4791 193.581 51.9911C194.445 50.4791 195.633 49.3031 197.145 48.4631C198.657 47.6231 200.361 47.2031 202.257 47.2031C204.129 47.2031 205.797 47.6231 207.261 48.4631C208.749 49.2791 209.901 50.4431 210.717 51.9551C211.557 53.4431 211.977 55.1711 211.977 57.1391ZM202.257 50.8031C200.817 50.8031 199.593 51.2351 198.585 52.0991C197.601 52.9391 197.001 54.0671 196.785 55.4831H207.693C207.501 54.0911 206.913 52.9631 205.929 52.0991C204.945 51.2351 203.721 50.8031 202.257 50.8031ZM216.899 47.4191H221.399V55.2311H231.083V47.4191H235.583V66.6431H231.083V59.0471H221.399V66.6431H216.899V47.4191ZM251.262 53.7551C253.71 53.7551 255.582 54.3071 256.878 55.4111C258.198 56.5151 258.858 58.0751 258.858 60.0911C258.858 62.2031 258.138 63.8351 256.698 64.9871C255.258 66.1391 253.23 66.7031 250.614 66.6791L241.614 66.6431V47.4191H246.114V53.7191L251.262 53.7551ZM250.218 63.3671C251.538 63.3911 252.546 63.1151 253.242 62.5391C253.938 61.9631 254.286 61.1231 254.286 60.0191C254.286 58.9391 253.95 58.1471 253.278 57.6431C252.606 57.1391 251.586 56.8751 250.218 56.8511L246.114 56.8151V63.3311L250.218 63.3671ZM277.573 51.2351H267.313V66.6431H262.813V47.4191H277.573V51.2351ZM280.848 47.4191H285.348V60.0911L295.968 47.4191H300.072V66.6431H295.572V53.9711L284.988 66.6431H280.848V47.4191Z" fill="white"/>
<path opacity="0.8" d="M31.13 106.163C31.13 105.383 31.268 104.615 31.544 103.859C31.82 103.103 32.222 102.419 32.75 101.807C33.29 101.195 33.938 100.709 34.694 100.349C35.462 99.9771 36.338 99.7911 37.322 99.7911C38.474 99.7911 39.47 100.049 40.31 100.565C41.15 101.081 41.774 101.753 42.182 102.581L40.598 103.643C40.358 103.127 40.052 102.725 39.68 102.437C39.32 102.137 38.924 101.927 38.492 101.807C38.072 101.675 37.658 101.609 37.25 101.609C36.578 101.609 35.99 101.747 35.486 102.023C34.982 102.287 34.556 102.641 34.208 103.085C33.872 103.529 33.614 104.027 33.434 104.579C33.266 105.131 33.182 105.683 33.182 106.235C33.182 107.063 33.356 107.837 33.704 108.557C34.064 109.265 34.55 109.841 35.162 110.285C35.786 110.717 36.5 110.933 37.304 110.933C37.712 110.933 38.138 110.861 38.582 110.717C39.026 110.573 39.434 110.351 39.806 110.051C40.178 109.739 40.478 109.331 40.706 108.827L42.38 109.781C42.116 110.417 41.702 110.957 41.138 111.401C40.586 111.845 39.962 112.181 39.266 112.409C38.582 112.637 37.904 112.751 37.232 112.751C36.332 112.751 35.51 112.565 34.766 112.193C34.022 111.809 33.38 111.305 32.84 110.681C32.3 110.045 31.88 109.337 31.58 108.557C31.28 107.765 31.13 106.967 31.13 106.163ZM49.3387 112.823C48.5827 112.823 47.9167 112.643 47.3407 112.283C46.7647 111.923 46.3087 111.455 45.9727 110.879V116.477H43.9927V103.229H45.7387V104.921C46.0987 104.357 46.5667 103.907 47.1427 103.571C47.7187 103.235 48.3607 103.067 49.0687 103.067C49.9327 103.067 50.6947 103.295 51.3547 103.751C52.0267 104.195 52.5547 104.789 52.9387 105.533C53.3227 106.265 53.5147 107.063 53.5147 107.927C53.5147 108.839 53.3347 109.667 52.9747 110.411C52.6147 111.143 52.1227 111.731 51.4987 112.175C50.8747 112.607 50.1547 112.823 49.3387 112.823ZM48.6907 111.131C49.2547 111.131 49.7407 110.981 50.1487 110.681C50.5687 110.369 50.8927 109.973 51.1207 109.493C51.3607 109.001 51.4807 108.479 51.4807 107.927C51.4807 107.351 51.3487 106.823 51.0847 106.343C50.8327 105.863 50.4847 105.479 50.0407 105.191C49.6087 104.903 49.1107 104.759 48.5467 104.759C48.2107 104.759 47.8567 104.843 47.4847 105.011C47.1247 105.179 46.8067 105.401 46.5307 105.677C46.2547 105.953 46.0687 106.265 45.9727 106.613V109.079C46.2127 109.655 46.5787 110.141 47.0707 110.537C47.5747 110.933 48.1147 111.131 48.6907 111.131ZM59.5254 112.823C58.5414 112.823 57.6834 112.601 56.9514 112.157C56.2314 111.701 55.6734 111.107 55.2774 110.375C54.8814 109.631 54.6834 108.821 54.6834 107.945C54.6834 107.069 54.8814 106.265 55.2774 105.533C55.6854 104.789 56.2494 104.195 56.9694 103.751C57.7014 103.295 58.5534 103.067 59.5254 103.067C60.4974 103.067 61.3434 103.295 62.0634 103.751C62.7954 104.195 63.3594 104.789 63.7554 105.533C64.1634 106.265 64.3674 107.069 64.3674 107.945C64.3674 108.821 64.1694 109.631 63.7734 110.375C63.3774 111.107 62.8134 111.701 62.0814 112.157C61.3614 112.601 60.5094 112.823 59.5254 112.823ZM56.7174 107.963C56.7174 108.563 56.8434 109.103 57.0954 109.583C57.3474 110.063 57.6834 110.441 58.1034 110.717C58.5234 110.993 58.9974 111.131 59.5254 111.131C60.0414 111.131 60.5094 110.993 60.9294 110.717C61.3614 110.429 61.7034 110.045 61.9554 109.565C62.2074 109.085 62.3334 108.545 62.3334 107.945C62.3334 107.345 62.2074 106.805 61.9554 106.325C61.7034 105.845 61.3614 105.467 60.9294 105.191C60.5094 104.903 60.0414 104.759 59.5254 104.759C59.0094 104.759 58.5354 104.903 58.1034 105.191C57.6834 105.467 57.3474 105.851 57.0954 106.343C56.8434 106.823 56.7174 107.363 56.7174 107.963ZM66.1235 112.643V103.229H68.0855V106.955H69.0215L71.7935 103.229H73.9895L70.5515 107.783L74.3855 112.643H72.0995L69.0035 108.737H68.0855V112.643H66.1235ZM80.3442 112.643V103.247H82.3243V109.997L87.0943 103.229H88.8943V112.643H86.9143V106.037L82.1983 112.643H80.3442ZM94.4103 112.787C93.4503 112.787 92.6403 112.613 91.9803 112.265C91.3323 111.905 90.8343 111.413 90.4863 110.789L92.0883 110.069C92.2923 110.417 92.5803 110.693 92.9523 110.897C93.3243 111.089 93.7743 111.185 94.3023 111.185C94.9383 111.185 95.4303 111.053 95.7783 110.789C96.1263 110.525 96.3003 110.177 96.3003 109.745C96.3003 109.349 96.1563 109.031 95.8683 108.791C95.5803 108.539 95.1723 108.407 94.6443 108.395H93.6723V107.135H94.6803C95.0403 107.135 95.3283 107.021 95.5443 106.793C95.7723 106.553 95.8863 106.253 95.8863 105.893C95.8863 105.533 95.7483 105.245 95.4723 105.029C95.2083 104.801 94.8063 104.687 94.2663 104.687C93.7983 104.687 93.4083 104.777 93.0963 104.957C92.7963 105.125 92.5563 105.377 92.3763 105.713L90.8823 104.921C91.1943 104.345 91.6443 103.895 92.2323 103.571C92.8323 103.247 93.5403 103.085 94.3563 103.085C95.3043 103.085 96.0903 103.307 96.7143 103.751C97.3383 104.195 97.6503 104.825 97.6503 105.641C97.6503 106.073 97.5483 106.481 97.3443 106.865C97.1403 107.237 96.8223 107.513 96.3903 107.693C96.9663 107.873 97.3983 108.167 97.6863 108.575C97.9863 108.983 98.1363 109.469 98.1363 110.033C98.1363 110.609 97.9743 111.107 97.6503 111.527C97.3383 111.935 96.9003 112.247 96.3363 112.463C95.7723 112.679 95.1303 112.787 94.4103 112.787ZM99.9614 112.643V103.229H105.973V104.975H101.941V112.643H99.9614ZM111.697 112.823C110.713 112.823 109.855 112.601 109.123 112.157C108.403 111.701 107.845 111.107 107.449 110.375C107.053 109.631 106.855 108.821 106.855 107.945C106.855 107.069 107.053 106.265 107.449 105.533C107.857 104.789 108.421 104.195 109.141 103.751C109.873 103.295 110.725 103.067 111.697 103.067C112.669 103.067 113.515 103.295 114.235 103.751C114.967 104.195 115.531 104.789 115.927 105.533C116.335 106.265 116.539 107.069 116.539 107.945C116.539 108.821 116.341 109.631 115.945 110.375C115.549 111.107 114.985 111.701 114.253 112.157C113.533 112.601 112.681 112.823 111.697 112.823ZM108.889 107.963C108.889 108.563 109.015 109.103 109.267 109.583C109.519 110.063 109.855 110.441 110.275 110.717C110.695 110.993 111.169 111.131 111.697 111.131C112.213 111.131 112.681 110.993 113.101 110.717C113.533 110.429 113.875 110.045 114.127 109.565C114.379 109.085 114.505 108.545 114.505 107.945C114.505 107.345 114.379 106.805 114.127 106.325C113.875 105.845 113.533 105.467 113.101 105.191C112.681 104.903 112.213 104.759 111.697 104.759C111.181 104.759 110.707 104.903 110.275 105.191C109.855 105.467 109.519 105.851 109.267 106.343C109.015 106.823 108.889 107.363 108.889 107.963ZM120.527 112.643V104.975H117.413V103.229H125.639V104.975H122.507V112.643H120.527ZM131.35 112.823C130.366 112.823 129.508 112.601 128.776 112.157C128.056 111.701 127.498 111.107 127.102 110.375C126.706 109.631 126.508 108.821 126.508 107.945C126.508 107.069 126.706 106.265 127.102 105.533C127.51 104.789 128.074 104.195 128.794 103.751C129.526 103.295 130.378 103.067 131.35 103.067C132.322 103.067 133.168 103.295 133.888 103.751C134.62 104.195 135.184 104.789 135.58 105.533C135.988 106.265 136.192 107.069 136.192 107.945C136.192 108.821 135.994 109.631 135.598 110.375C135.202 111.107 134.638 111.701 133.906 112.157C133.186 112.601 132.334 112.823 131.35 112.823ZM128.542 107.963C128.542 108.563 128.668 109.103 128.92 109.583C129.172 110.063 129.508 110.441 129.928 110.717C130.348 110.993 130.822 111.131 131.35 111.131C131.866 111.131 132.334 110.993 132.754 110.717C133.186 110.429 133.528 110.045 133.78 109.565C134.032 109.085 134.158 108.545 134.158 107.945C134.158 107.345 134.032 106.805 133.78 106.325C133.528 105.845 133.186 105.467 132.754 105.191C132.334 104.903 131.866 104.759 131.35 104.759C130.834 104.759 130.36 104.903 129.928 105.191C129.508 105.467 129.172 105.851 128.92 106.343C128.668 106.823 128.542 107.363 128.542 107.963ZM137.948 112.643V103.229H142.988C143.588 103.229 144.08 103.343 144.464 103.571C144.86 103.787 145.154 104.069 145.346 104.417C145.538 104.765 145.634 105.137 145.634 105.533C145.634 106.049 145.508 106.505 145.256 106.901C145.016 107.297 144.668 107.597 144.212 107.801C144.752 107.957 145.19 108.233 145.526 108.629C145.874 109.025 146.048 109.523 146.048 110.123C146.048 110.951 145.754 111.581 145.166 112.013C144.578 112.433 143.798 112.643 142.826 112.643H137.948ZM139.82 107.261H142.484C142.856 107.261 143.162 107.123 143.402 106.847C143.642 106.571 143.762 106.247 143.762 105.875C143.762 105.527 143.648 105.227 143.42 104.975C143.192 104.723 142.892 104.597 142.52 104.597H139.82V107.261ZM139.82 111.275H142.772C143.156 111.275 143.48 111.143 143.744 110.879C144.008 110.603 144.14 110.279 144.14 109.907C144.14 109.523 144.014 109.199 143.762 108.935C143.51 108.671 143.192 108.539 142.808 108.539H139.82V111.275ZM147.176 112.733V110.969C147.572 110.957 147.914 110.819 148.202 110.555C148.502 110.291 148.742 109.811 148.922 109.115C149.102 108.407 149.216 107.393 149.264 106.073L149.39 103.229H156.104V112.643H154.124V104.975H151.136L151.1 106.253C151.04 107.933 150.854 109.241 150.542 110.177C150.242 111.113 149.816 111.773 149.264 112.157C148.712 112.541 148.016 112.733 147.176 112.733ZM162.745 112.823C161.773 112.823 160.921 112.601 160.189 112.157C159.457 111.713 158.887 111.125 158.479 110.393C158.071 109.649 157.867 108.839 157.867 107.963C157.867 107.075 158.071 106.259 158.479 105.515C158.887 104.771 159.457 104.177 160.189 103.733C160.921 103.289 161.779 103.067 162.763 103.067C163.747 103.067 164.599 103.295 165.319 103.751C166.039 104.195 166.591 104.783 166.975 105.515C167.371 106.247 167.569 107.033 167.569 107.873C167.569 108.173 167.551 108.413 167.515 108.593H159.973C160.009 109.145 160.159 109.631 160.423 110.051C160.699 110.459 161.041 110.783 161.449 111.023C161.869 111.251 162.325 111.365 162.817 111.365C163.345 111.365 163.843 111.233 164.311 110.969C164.779 110.705 165.103 110.357 165.283 109.925L166.975 110.411C166.651 111.119 166.111 111.701 165.355 112.157C164.611 112.601 163.741 112.823 162.745 112.823ZM159.919 107.279H165.607C165.559 106.739 165.403 106.265 165.139 105.857C164.875 105.437 164.533 105.113 164.113 104.885C163.705 104.645 163.249 104.525 162.745 104.525C162.253 104.525 161.797 104.645 161.377 104.885C160.969 105.113 160.633 105.437 160.369 105.857C160.105 106.265 159.955 106.739 159.919 107.279ZM169.184 112.643V103.229H171.164V106.973H175.538V103.229H177.518V112.643H175.538V108.683H171.164V112.643H169.184ZM179.907 112.643V103.247H181.887V109.997L186.657 103.229H188.457V112.643H186.477V106.037L181.761 112.643H179.907ZM190.229 112.643L192.749 108.917C192.161 108.773 191.693 108.473 191.345 108.017C190.997 107.561 190.823 106.949 190.823 106.181C190.823 105.305 191.123 104.591 191.723 104.039C192.323 103.487 193.109 103.211 194.081 103.211H198.221V112.643H196.241V109.241H194.693L192.389 112.643H190.229ZM194.279 107.801H196.241V104.741H194.405C193.901 104.741 193.499 104.879 193.199 105.155C192.911 105.431 192.767 105.791 192.767 106.235C192.767 106.679 192.893 107.051 193.145 107.351C193.397 107.651 193.775 107.801 194.279 107.801ZM209.327 112.823C208.355 112.823 207.503 112.601 206.771 112.157C206.039 111.701 205.469 111.101 205.061 110.357C204.653 109.613 204.449 108.803 204.449 107.927C204.449 107.051 204.647 106.247 205.043 105.515C205.451 104.771 206.015 104.177 206.735 103.733C207.467 103.289 208.331 103.067 209.327 103.067C210.299 103.067 211.133 103.283 211.829 103.715C212.537 104.135 213.065 104.699 213.413 105.407L211.487 106.019C211.271 105.623 210.965 105.317 210.569 105.101C210.185 104.873 209.759 104.759 209.291 104.759C208.763 104.759 208.283 104.897 207.851 105.173C207.431 105.437 207.095 105.809 206.843 106.289C206.603 106.769 206.483 107.315 206.483 107.927C206.483 108.539 206.609 109.085 206.861 109.565C207.125 110.045 207.467 110.429 207.887 110.717C208.319 110.993 208.793 111.131 209.309 111.131C209.789 111.131 210.245 111.005 210.677 110.753C211.109 110.501 211.397 110.195 211.541 109.835L213.485 110.411C213.173 111.119 212.651 111.701 211.919 112.157C211.187 112.601 210.323 112.823 209.327 112.823ZM217.348 112.643V104.975H214.234V103.229H222.46V104.975H219.328V112.643H217.348ZM223.238 109.889C223.238 109.289 223.406 108.767 223.742 108.323C224.078 107.867 224.546 107.519 225.146 107.279C225.758 107.027 226.46 106.901 227.252 106.901C227.672 106.901 228.098 106.937 228.53 107.009C228.974 107.069 229.364 107.159 229.7 107.279V106.685C229.7 106.025 229.502 105.509 229.106 105.137C228.71 104.765 228.14 104.579 227.396 104.579C226.88 104.579 226.382 104.669 225.902 104.849C225.422 105.029 224.924 105.293 224.408 105.641L223.742 104.309C224.366 103.901 224.99 103.595 225.614 103.391C226.25 103.175 226.916 103.067 227.612 103.067C228.872 103.067 229.862 103.403 230.582 104.075C231.314 104.735 231.68 105.677 231.68 106.901V110.411C231.68 110.639 231.716 110.801 231.788 110.897C231.872 110.993 232.01 111.047 232.202 111.059V112.643C232.022 112.679 231.86 112.703 231.716 112.715C231.572 112.727 231.452 112.733 231.356 112.733C230.924 112.733 230.6 112.631 230.384 112.427C230.18 112.211 230.06 111.971 230.024 111.707L229.97 111.167C229.562 111.695 229.04 112.103 228.404 112.391C227.768 112.679 227.126 112.823 226.478 112.823C225.854 112.823 225.296 112.697 224.804 112.445C224.312 112.181 223.928 111.827 223.652 111.383C223.376 110.939 223.238 110.441 223.238 109.889ZM229.232 110.465C229.544 110.153 229.7 109.859 229.7 109.583V108.503C228.992 108.239 228.272 108.107 227.54 108.107C226.82 108.107 226.232 108.257 225.776 108.557C225.332 108.845 225.11 109.235 225.11 109.727C225.11 110.135 225.272 110.513 225.596 110.861C225.932 111.197 226.412 111.365 227.036 111.365C227.456 111.365 227.864 111.281 228.26 111.113C228.656 110.945 228.98 110.729 229.232 110.465ZM234.083 112.643V103.229H236.063V106.973H240.437V103.229H242.417V112.643H240.437V108.683H236.063V112.643H234.083ZM243.905 114.893V110.897H244.121C244.457 110.897 244.757 110.765 245.021 110.501C245.297 110.237 245.519 109.757 245.687 109.061C245.867 108.365 245.975 107.369 246.011 106.073L246.119 103.229H252.833V110.897H254.129V114.893H252.383V112.643H245.633V114.893H243.905ZM246.731 110.897H250.853V104.939H247.865L247.811 106.253C247.751 107.633 247.631 108.683 247.451 109.403C247.283 110.123 247.043 110.621 246.731 110.897ZM255.125 109.889C255.125 109.289 255.293 108.767 255.629 108.323C255.965 107.867 256.433 107.519 257.033 107.279C257.645 107.027 258.347 106.901 259.139 106.901C259.559 106.901 259.985 106.937 260.417 107.009C260.861 107.069 261.251 107.159 261.587 107.279V106.685C261.587 106.025 261.389 105.509 260.993 105.137C260.597 104.765 260.027 104.579 259.283 104.579C258.767 104.579 258.269 104.669 257.789 104.849C257.309 105.029 256.811 105.293 256.295 105.641L255.629 104.309C256.253 103.901 256.877 103.595 257.501 103.391C258.137 103.175 258.803 103.067 259.499 103.067C260.759 103.067 261.749 103.403 262.469 104.075C263.201 104.735 263.567 105.677 263.567 106.901V110.411C263.567 110.639 263.603 110.801 263.675 110.897C263.759 110.993 263.897 111.047 264.089 111.059V112.643C263.909 112.679 263.747 112.703 263.603 112.715C263.459 112.727 263.339 112.733 263.243 112.733C262.811 112.733 262.487 112.631 262.271 112.427C262.067 112.211 261.947 111.971 261.911 111.707L261.857 111.167C261.449 111.695 260.927 112.103 260.291 112.391C259.655 112.679 259.013 112.823 258.365 112.823C257.741 112.823 257.183 112.697 256.691 112.445C256.199 112.181 255.815 111.827 255.539 111.383C255.263 110.939 255.125 110.441 255.125 109.889ZM261.119 110.465C261.431 110.153 261.587 109.859 261.587 109.583V108.503C260.879 108.239 260.159 108.107 259.427 108.107C258.707 108.107 258.119 108.257 257.663 108.557C257.219 108.845 256.997 109.235 256.997 109.727C256.997 110.135 257.159 110.513 257.483 110.861C257.819 111.197 258.299 111.365 258.923 111.365C259.343 111.365 259.751 111.281 260.147 111.113C260.543 110.945 260.867 110.729 261.119 110.465ZM271.315 112.823C270.559 112.823 269.893 112.643 269.317 112.283C268.741 111.923 268.285 111.455 267.949 110.879V116.477H265.969V103.229H267.715V104.921C268.075 104.357 268.543 103.907 269.119 103.571C269.695 103.235 270.337 103.067 271.045 103.067C271.909 103.067 272.671 103.295 273.331 103.751C274.003 104.195 274.531 104.789 274.915 105.533C275.299 106.265 275.491 107.063 275.491 107.927C275.491 108.839 275.311 109.667 274.951 110.411C274.591 111.143 274.099 111.731 273.475 112.175C272.851 112.607 272.131 112.823 271.315 112.823ZM270.667 111.131C271.231 111.131 271.717 110.981 272.125 110.681C272.545 110.369 272.869 109.973 273.097 109.493C273.337 109.001 273.457 108.479 273.457 107.927C273.457 107.351 273.325 106.823 273.061 106.343C272.809 105.863 272.461 105.479 272.017 105.191C271.585 104.903 271.087 104.759 270.523 104.759C270.187 104.759 269.833 104.843 269.461 105.011C269.101 105.179 268.783 105.401 268.507 105.677C268.231 105.953 268.045 106.265 267.949 106.613V109.079C268.189 109.655 268.555 110.141 269.047 110.537C269.551 110.933 270.091 111.131 270.667 111.131ZM279.504 112.643V104.975H276.39V103.229H284.616V104.975H281.484V112.643H279.504ZM286.096 112.643V103.229H288.076V106.973H292.45V103.229H294.43V112.643H292.45V108.683H288.076V112.643H286.096ZM296.819 112.643V103.229H298.799V106.325H300.581C301.697 106.325 302.549 106.607 303.137 107.171C303.725 107.735 304.019 108.479 304.019 109.403C304.019 110.339 303.737 111.113 303.173 111.725C302.609 112.337 301.793 112.643 300.725 112.643H296.819ZM305.567 112.643V103.247H307.547V112.643H305.567ZM298.799 111.113H300.419C300.995 111.113 301.415 110.951 301.679 110.627C301.943 110.291 302.075 109.895 302.075 109.439C302.075 108.995 301.949 108.611 301.697 108.287C301.457 107.963 301.025 107.801 300.401 107.801H298.799V111.113ZM311.048 103.229L313.28 106.451L313.442 106.757L313.604 106.451L315.818 103.229H317.96L314.576 107.945L317.996 112.643H315.854L313.604 109.439L313.442 109.151L313.28 109.439L311.03 112.643H308.888L312.308 107.963L308.924 103.229H311.048ZM37.034 139.823C36.278 139.823 35.612 139.643 35.036 139.283C34.46 138.923 34.004 138.455 33.668 137.879V143.477H31.688V130.229H33.434V131.921C33.794 131.357 34.262 130.907 34.838 130.571C35.414 130.235 36.056 130.067 36.764 130.067C37.628 130.067 38.39 130.295 39.05 130.751C39.722 131.195 40.25 131.789 40.634 132.533C41.018 133.265 41.21 134.063 41.21 134.927C41.21 135.839 41.03 136.667 40.67 137.411C40.31 138.143 39.818 138.731 39.194 139.175C38.57 139.607 37.85 139.823 37.034 139.823ZM36.386 138.131C36.95 138.131 37.436 137.981 37.844 137.681C38.264 137.369 38.588 136.973 38.816 136.493C39.056 136.001 39.176 135.479 39.176 134.927C39.176 134.351 39.044 133.823 38.78 133.343C38.528 132.863 38.18 132.479 37.736 132.191C37.304 131.903 36.806 131.759 36.242 131.759C35.906 131.759 35.552 131.843 35.18 132.011C34.82 132.179 34.502 132.401 34.226 132.677C33.95 132.953 33.764 133.265 33.668 133.613V136.079C33.908 136.655 34.274 137.141 34.766 137.537C35.27 137.933 35.81 138.131 36.386 138.131ZM42.3067 136.889C42.3067 136.289 42.4747 135.767 42.8107 135.323C43.1467 134.867 43.6147 134.519 44.2147 134.279C44.8267 134.027 45.5287 133.901 46.3207 133.901C46.7407 133.901 47.1667 133.937 47.5987 134.009C48.0427 134.069 48.4327 134.159 48.7687 134.279V133.685C48.7687 133.025 48.5707 132.509 48.1747 132.137C47.7787 131.765 47.2087 131.579 46.4647 131.579C45.9487 131.579 45.4507 131.669 44.9707 131.849C44.4907 132.029 43.9927 132.293 43.4767 132.641L42.8107 131.309C43.4347 130.901 44.0587 130.595 44.6827 130.391C45.3187 130.175 45.9847 130.067 46.6807 130.067C47.9407 130.067 48.9307 130.403 49.6507 131.075C50.3827 131.735 50.7487 132.677 50.7487 133.901V137.411C50.7487 137.639 50.7847 137.801 50.8567 137.897C50.9407 137.993 51.0787 138.047 51.2707 138.059V139.643C51.0907 139.679 50.9287 139.703 50.7847 139.715C50.6407 139.727 50.5207 139.733 50.4247 139.733C49.9927 139.733 49.6687 139.631 49.4527 139.427C49.2487 139.211 49.1287 138.971 49.0927 138.707L49.0387 138.167C48.6307 138.695 48.1087 139.103 47.4727 139.391C46.8367 139.679 46.1947 139.823 45.5467 139.823C44.9227 139.823 44.3647 139.697 43.8727 139.445C43.3807 139.181 42.9967 138.827 42.7207 138.383C42.4447 137.939 42.3067 137.441 42.3067 136.889ZM48.3007 137.465C48.6127 137.153 48.7687 136.859 48.7687 136.583V135.503C48.0607 135.239 47.3407 135.107 46.6087 135.107C45.8887 135.107 45.3007 135.257 44.8447 135.557C44.4007 135.845 44.1787 136.235 44.1787 136.727C44.1787 137.135 44.3407 137.513 44.6647 137.861C45.0007 138.197 45.4807 138.365 46.1047 138.365C46.5247 138.365 46.9327 138.281 47.3287 138.113C47.7247 137.945 48.0487 137.729 48.3007 137.465ZM56.3009 139.787C55.3409 139.787 54.5309 139.613 53.8709 139.265C53.2229 138.905 52.7249 138.413 52.3769 137.789L53.9789 137.069C54.1829 137.417 54.4709 137.693 54.8429 137.897C55.2149 138.089 55.6649 138.185 56.1929 138.185C56.8289 138.185 57.3209 138.053 57.6689 137.789C58.0169 137.525 58.1909 137.177 58.1909 136.745C58.1909 136.349 58.0469 136.031 57.7589 135.791C57.4709 135.539 57.0629 135.407 56.5349 135.395H55.5629V134.135H56.5709C56.9309 134.135 57.2189 134.021 57.4349 133.793C57.6629 133.553 57.7769 133.253 57.7769 132.893C57.7769 132.533 57.6389 132.245 57.3629 132.029C57.0989 131.801 56.6969 131.687 56.1569 131.687C55.6889 131.687 55.2989 131.777 54.9869 131.957C54.6869 132.125 54.4469 132.377 54.2669 132.713L52.7729 131.921C53.0849 131.345 53.5349 130.895 54.1229 130.571C54.7229 130.247 55.4309 130.085 56.2469 130.085C57.1949 130.085 57.9809 130.307 58.6049 130.751C59.2289 131.195 59.5409 131.825 59.5409 132.641C59.5409 133.073 59.4389 133.481 59.2349 133.865C59.0309 134.237 58.7129 134.513 58.2809 134.693C58.8569 134.873 59.2889 135.167 59.5769 135.575C59.8769 135.983 60.0269 136.469 60.0269 137.033C60.0269 137.609 59.8649 138.107 59.5409 138.527C59.2289 138.935 58.7909 139.247 58.2269 139.463C57.6629 139.679 57.0209 139.787 56.3009 139.787ZM61.8521 139.643V130.229H63.9041L67.1441 136.043L70.4021 130.229H72.4181V139.643H70.5281V133.019L67.7561 137.969H66.5141L63.7241 133.019V139.643H61.8521ZM79.0556 139.823C78.0836 139.823 77.2316 139.601 76.4996 139.157C75.7676 138.713 75.1976 138.125 74.7896 137.393C74.3816 136.649 74.1776 135.839 74.1776 134.963C74.1776 134.075 74.3816 133.259 74.7896 132.515C75.1976 131.771 75.7676 131.177 76.4996 130.733C77.2316 130.289 78.0896 130.067 79.0736 130.067C80.0576 130.067 80.9096 130.295 81.6296 130.751C82.3496 131.195 82.9016 131.783 83.2856 132.515C83.6816 133.247 83.8796 134.033 83.8796 134.873C83.8796 135.173 83.8616 135.413 83.8256 135.593H76.2836C76.3196 136.145 76.4696 136.631 76.7336 137.051C77.0096 137.459 77.3516 137.783 77.7596 138.023C78.1796 138.251 78.6356 138.365 79.1276 138.365C79.6556 138.365 80.1536 138.233 80.6216 137.969C81.0896 137.705 81.4136 137.357 81.5936 136.925L83.2856 137.411C82.9616 138.119 82.4216 138.701 81.6656 139.157C80.9216 139.601 80.0516 139.823 79.0556 139.823ZM76.2296 134.279H81.9176C81.8696 133.739 81.7136 133.265 81.4496 132.857C81.1856 132.437 80.8436 132.113 80.4236 131.885C80.0156 131.645 79.5596 131.525 79.0556 131.525C78.5636 131.525 78.1076 131.645 77.6876 131.885C77.2796 132.113 76.9436 132.437 76.6796 132.857C76.4156 133.265 76.2656 133.739 76.2296 134.279ZM90.8406 139.823C90.0846 139.823 89.4186 139.643 88.8426 139.283C88.2666 138.923 87.8106 138.455 87.4746 137.879V143.477H85.4946V130.229H87.2406V131.921C87.6006 131.357 88.0686 130.907 88.6446 130.571C89.2206 130.235 89.8626 130.067 90.5706 130.067C91.4346 130.067 92.1966 130.295 92.8566 130.751C93.5286 131.195 94.0566 131.789 94.4406 132.533C94.8246 133.265 95.0166 134.063 95.0166 134.927C95.0166 135.839 94.8366 136.667 94.4766 137.411C94.1166 138.143 93.6246 138.731 93.0006 139.175C92.3766 139.607 91.6566 139.823 90.8406 139.823ZM90.1926 138.131C90.7566 138.131 91.2426 137.981 91.6506 137.681C92.0706 137.369 92.3946 136.973 92.6226 136.493C92.8626 136.001 92.9826 135.479 92.9826 134.927C92.9826 134.351 92.8506 133.823 92.5866 133.343C92.3346 132.863 91.9866 132.479 91.5426 132.191C91.1106 131.903 90.6126 131.759 90.0486 131.759C89.7126 131.759 89.3586 131.843 88.9866 132.011C88.6266 132.179 88.3086 132.401 88.0326 132.677C87.7566 132.953 87.5706 133.265 87.4746 133.613V136.079C87.7146 136.655 88.0806 137.141 88.5726 137.537C89.0766 137.933 89.6166 138.131 90.1926 138.131ZM101.027 139.823C100.043 139.823 99.1854 139.601 98.4534 139.157C97.7334 138.701 97.1754 138.107 96.7794 137.375C96.3834 136.631 96.1854 135.821 96.1854 134.945C96.1854 134.069 96.3834 133.265 96.7794 132.533C97.1874 131.789 97.7514 131.195 98.4714 130.751C99.2034 130.295 100.055 130.067 101.027 130.067C101.999 130.067 102.845 130.295 103.565 130.751C104.297 131.195 104.861 131.789 105.257 132.533C105.665 133.265 105.869 134.069 105.869 134.945C105.869 135.821 105.671 136.631 105.275 137.375C104.879 138.107 104.315 138.701 103.583 139.157C102.863 139.601 102.011 139.823 101.027 139.823ZM98.2194 134.963C98.2194 135.563 98.3454 136.103 98.5974 136.583C98.8494 137.063 99.1854 137.441 99.6054 137.717C100.025 137.993 100.499 138.131 101.027 138.131C101.543 138.131 102.011 137.993 102.431 137.717C102.863 137.429 103.205 137.045 103.457 136.565C103.709 136.085 103.835 135.545 103.835 134.945C103.835 134.345 103.709 133.805 103.457 133.325C103.205 132.845 102.863 132.467 102.431 132.191C102.011 131.903 101.543 131.759 101.027 131.759C100.511 131.759 100.037 131.903 99.6054 132.191C99.1854 132.467 98.8494 132.851 98.5974 133.343C98.3454 133.823 98.2194 134.363 98.2194 134.963ZM107.625 139.643V130.229H112.666C113.266 130.229 113.758 130.343 114.142 130.571C114.538 130.787 114.832 131.069 115.024 131.417C115.216 131.765 115.312 132.137 115.312 132.533C115.312 133.049 115.186 133.505 114.934 133.901C114.694 134.297 114.346 134.597 113.89 134.801C114.43 134.957 114.868 135.233 115.204 135.629C115.552 136.025 115.726 136.523 115.726 137.123C115.726 137.951 115.432 138.581 114.844 139.013C114.256 139.433 113.476 139.643 112.504 139.643H107.625ZM109.498 134.261H112.162C112.534 134.261 112.84 134.123 113.08 133.847C113.32 133.571 113.44 133.247 113.44 132.875C113.44 132.527 113.326 132.227 113.098 131.975C112.87 131.723 112.57 131.597 112.198 131.597H109.498V134.261ZM109.498 138.275H112.45C112.834 138.275 113.158 138.143 113.422 137.879C113.686 137.603 113.818 137.279 113.818 136.907C113.818 136.523 113.692 136.199 113.44 135.935C113.188 135.671 112.87 135.539 112.486 135.539H109.498V138.275ZM127.403 139.823C126.647 139.823 125.981 139.643 125.405 139.283C124.829 138.923 124.373 138.455 124.037 137.879V143.477H122.057V130.229H123.803V131.921C124.163 131.357 124.631 130.907 125.207 130.571C125.783 130.235 126.425 130.067 127.133 130.067C127.997 130.067 128.759 130.295 129.419 130.751C130.091 131.195 130.619 131.789 131.003 132.533C131.387 133.265 131.579 134.063 131.579 134.927C131.579 135.839 131.399 136.667 131.039 137.411C130.679 138.143 130.187 138.731 129.563 139.175C128.939 139.607 128.219 139.823 127.403 139.823ZM126.755 138.131C127.319 138.131 127.805 137.981 128.213 137.681C128.633 137.369 128.957 136.973 129.185 136.493C129.425 136.001 129.545 135.479 129.545 134.927C129.545 134.351 129.413 133.823 129.149 133.343C128.897 132.863 128.549 132.479 128.105 132.191C127.673 131.903 127.175 131.759 126.611 131.759C126.275 131.759 125.921 131.843 125.549 132.011C125.189 132.179 124.871 132.401 124.595 132.677C124.319 132.953 124.133 133.265 124.037 133.613V136.079C124.277 136.655 124.643 137.141 125.135 137.537C125.639 137.933 126.179 138.131 126.755 138.131ZM137.626 139.823C136.654 139.823 135.802 139.601 135.07 139.157C134.338 138.713 133.768 138.125 133.36 137.393C132.952 136.649 132.748 135.839 132.748 134.963C132.748 134.075 132.952 133.259 133.36 132.515C133.768 131.771 134.338 131.177 135.07 130.733C135.802 130.289 136.66 130.067 137.644 130.067C138.628 130.067 139.48 130.295 140.2 130.751C140.92 131.195 141.472 131.783 141.856 132.515C142.252 133.247 142.45 134.033 142.45 134.873C142.45 135.173 142.432 135.413 142.396 135.593H134.854C134.89 136.145 135.04 136.631 135.304 137.051C135.58 137.459 135.922 137.783 136.33 138.023C136.75 138.251 137.206 138.365 137.698 138.365C138.226 138.365 138.724 138.233 139.192 137.969C139.66 137.705 139.984 137.357 140.164 136.925L141.856 137.411C141.532 138.119 140.992 138.701 140.236 139.157C139.492 139.601 138.622 139.823 137.626 139.823ZM134.8 134.279H140.488C140.44 133.739 140.284 133.265 140.02 132.857C139.756 132.437 139.414 132.113 138.994 131.885C138.586 131.645 138.13 131.525 137.626 131.525C137.134 131.525 136.678 131.645 136.258 131.885C135.85 132.113 135.514 132.437 135.25 132.857C134.986 133.265 134.836 133.739 134.8 134.279ZM144.065 139.643V130.229H146.045V137.915H149.411V130.229H151.409V137.915H154.757V130.229H156.737V139.643H144.065ZM163.395 139.823C162.423 139.823 161.571 139.601 160.839 139.157C160.107 138.713 159.537 138.125 159.129 137.393C158.721 136.649 158.517 135.839 158.517 134.963C158.517 134.075 158.721 133.259 159.129 132.515C159.537 131.771 160.107 131.177 160.839 130.733C161.571 130.289 162.429 130.067 163.413 130.067C164.397 130.067 165.249 130.295 165.969 130.751C166.689 131.195 167.241 131.783 167.625 132.515C168.021 133.247 168.219 134.033 168.219 134.873C168.219 135.173 168.201 135.413 168.165 135.593H160.623C160.659 136.145 160.809 136.631 161.073 137.051C161.349 137.459 161.691 137.783 162.099 138.023C162.519 138.251 162.975 138.365 163.467 138.365C163.995 138.365 164.493 138.233 164.961 137.969C165.429 137.705 165.753 137.357 165.933 136.925L167.625 137.411C167.301 138.119 166.761 138.701 166.005 139.157C165.261 139.601 164.391 139.823 163.395 139.823ZM160.569 134.279H166.257C166.209 133.739 166.053 133.265 165.789 132.857C165.525 132.437 165.183 132.113 164.763 131.885C164.355 131.645 163.899 131.525 163.395 131.525C162.903 131.525 162.447 131.645 162.027 131.885C161.619 132.113 161.283 132.437 161.019 132.857C160.755 133.265 160.605 133.739 160.569 134.279ZM172.066 139.643V131.975H168.952V130.229H177.178V131.975H174.046V139.643H172.066ZM182.889 139.823C181.905 139.823 181.047 139.601 180.315 139.157C179.595 138.701 179.037 138.107 178.641 137.375C178.245 136.631 178.047 135.821 178.047 134.945C178.047 134.069 178.245 133.265 178.641 132.533C179.049 131.789 179.613 131.195 180.333 130.751C181.065 130.295 181.917 130.067 182.889 130.067C183.861 130.067 184.707 130.295 185.427 130.751C186.159 131.195 186.723 131.789 187.119 132.533C187.527 133.265 187.731 134.069 187.731 134.945C187.731 135.821 187.533 136.631 187.137 137.375C186.741 138.107 186.177 138.701 185.445 139.157C184.725 139.601 183.873 139.823 182.889 139.823ZM180.081 134.963C180.081 135.563 180.207 136.103 180.459 136.583C180.711 137.063 181.047 137.441 181.467 137.717C181.887 137.993 182.361 138.131 182.889 138.131C183.405 138.131 183.873 137.993 184.293 137.717C184.725 137.429 185.067 137.045 185.319 136.565C185.571 136.085 185.697 135.545 185.697 134.945C185.697 134.345 185.571 133.805 185.319 133.325C185.067 132.845 184.725 132.467 184.293 132.191C183.873 131.903 183.405 131.759 182.889 131.759C182.373 131.759 181.899 131.903 181.467 132.191C181.047 132.467 180.711 132.851 180.459 133.343C180.207 133.823 180.081 134.363 180.081 134.963ZM189.487 139.643V130.229H191.449V133.955H192.385L195.157 130.229H197.353L193.915 134.783L197.749 139.643H195.463L192.367 135.737H191.449V139.643H189.487ZM207.506 139.787C206.438 139.787 205.526 139.559 204.77 139.103C204.014 138.647 203.504 138.035 203.24 137.267L204.32 135.971C204.404 136.295 204.578 136.607 204.842 136.907C205.118 137.207 205.472 137.459 205.904 137.663C206.348 137.855 206.864 137.951 207.452 137.951C208.232 137.951 208.874 137.771 209.378 137.411C209.894 137.051 210.152 136.565 210.152 135.953C210.152 135.281 209.828 134.765 209.18 134.405C208.544 134.045 207.662 133.865 206.534 133.865H205.922V132.281H206.534C207.53 132.281 208.322 132.119 208.91 131.795C209.51 131.471 209.81 130.991 209.81 130.355C209.81 129.755 209.576 129.287 209.108 128.951C208.652 128.603 208.112 128.429 207.488 128.429C206.792 128.429 206.198 128.585 205.706 128.897C205.214 129.209 204.848 129.593 204.608 130.049L203.312 128.627C203.564 128.231 203.912 127.889 204.356 127.601C204.8 127.313 205.298 127.091 205.85 126.935C206.402 126.779 206.972 126.701 207.56 126.701C208.4 126.701 209.144 126.851 209.792 127.151C210.452 127.451 210.968 127.865 211.34 128.393C211.724 128.909 211.916 129.497 211.916 130.157C211.916 130.877 211.694 131.489 211.25 131.993C210.818 132.485 210.224 132.815 209.468 132.983C210.284 133.139 210.938 133.523 211.43 134.135C211.934 134.735 212.186 135.437 212.186 136.241C212.186 136.985 211.97 137.627 211.538 138.167C211.118 138.695 210.554 139.097 209.846 139.373C209.138 139.649 208.358 139.787 207.506 139.787ZM217.784 141.893V137.897H218C218.336 137.897 218.636 137.765 218.9 137.501C219.176 137.237 219.398 136.757 219.566 136.061C219.746 135.365 219.854 134.369 219.89 133.073L219.998 130.229H226.712V137.897H228.008V141.893H226.262V139.643H219.512V141.893H217.784ZM220.61 137.897H224.732V131.939H221.744L221.69 133.253C221.63 134.633 221.51 135.683 221.33 136.403C221.162 137.123 220.922 137.621 220.61 137.897ZM229.688 139.643V130.229H231.668V133.973H236.042V130.229H238.022V139.643H236.042V135.683H231.668V139.643H229.688ZM239.817 139.643L242.337 135.917C241.749 135.773 241.281 135.473 240.933 135.017C240.585 134.561 240.411 133.949 240.411 133.181C240.411 132.305 240.711 131.591 241.311 131.039C241.911 130.487 242.697 130.211 243.669 130.211H247.809V139.643H245.829V136.241H244.281L241.977 139.643H239.817ZM243.867 134.801H245.829V131.741H243.993C243.489 131.741 243.087 131.879 242.787 132.155C242.499 132.431 242.355 132.791 242.355 133.235C242.355 133.679 242.481 134.051 242.733 134.351C242.985 134.651 243.363 134.801 243.867 134.801ZM250.58 135.089V126.737H252.56V135.089H250.58ZM250.58 139.643V137.177H252.56V139.643H250.58Z" fill="white"/>
</svg>
