<svg xmlns="http://www.w3.org/2000/svg" width="36" height="36" fill="none" viewBox="0 0 36 36">
  <path fill="#000" stroke="#000" stroke-width=".2" d="M5.492 27.404h0c-.788-1.365-1.068-2.745-.786-3.994.282-1.246 1.13-2.378 2.626-3.242h0c1.74-1.006 3.665-1.14 5.619-.706a5.12 5.12 0 003.144 5.447c-.649 2.067-1.797 3.58-3.421 4.518-1.492.862-2.893 1.032-4.113.655-1.222-.377-2.278-1.308-3.069-2.678zm12.675-4.831h0a2.4 2.4 0 11-.315-4.792 2.402 2.402 0 01.315 4.792zm12.342 4.83l-.013.024c-.787 1.353-1.835 2.277-3.05 2.654-1.22.379-2.622.21-4.119-.654-1.623-.938-2.772-2.451-3.42-4.518a5.12 5.12 0 003.143-5.447c2.113-.47 3.997-.232 5.62.706h0c1.492.862 2.34 1.99 2.624 3.237.284 1.248.006 2.629-.785 3.999zm3.432-4.53c-.446-2.078-1.806-3.821-3.921-5.043-1.721-.995-3.677-1.417-5.766-1.265 1.176-1.735 1.788-3.64 1.788-5.628 0-2.44-.836-4.42-2.265-5.79-1.428-1.37-3.44-2.122-5.776-2.122-2.333 0-4.345.75-5.774 2.118-1.43 1.37-2.268 3.35-2.268 5.794 0 1.988.612 3.893 1.788 5.628-2.09-.152-4.044.27-5.766 1.265-2.12 1.225-3.414 2.944-3.882 4.867-.468 1.923-.109 4.04 1.055 6.056 1.149 1.991 2.789 3.368 4.685 3.934 1.897.566 4.04.318 6.185-.921 1.72-.994 3.064-2.477 3.977-4.362.912 1.885 2.256 3.368 3.976 4.361 2.119 1.224 4.253 1.487 6.153.932 1.899-.555 3.552-1.924 4.717-3.944 1.12-1.941 1.502-3.975 1.094-5.88zM18 5.725c1.583 0 2.916.45 3.854 1.321.936.87 1.488 2.169 1.488 3.89 0 1.876-.736 3.627-2.2 5.223a5.101 5.101 0 00-6.285 0c-1.464-1.596-2.2-3.347-2.2-5.222 0-1.717.55-3.016 1.484-3.887.936-.872 2.27-1.325 3.859-1.325z"/>
</svg>
