<svg width="211" height="101" viewBox="0 0 211 101" fill="none" xmlns="http://www.w3.org/2000/svg">
<rect x="0.821289" y="0.0742188" width="210.007" height="100.803" rx="4" fill="#42474A"/>
<path d="M121.192 33.2216H118.236V31.0635H126.855V33.2216H123.913V40.6856H121.192V33.2216Z" fill="white"/>
<path d="M137.024 31.0635V40.6856H134.302V36.933H130.591V40.6856H127.869V31.0635H130.591V34.6786H134.302V31.0635H137.024Z" fill="white"/>
<path d="M146.669 38.5825V40.6856H138.944V31.0635H146.49V33.1666H141.638V34.7886H145.913V36.823H141.638V38.5825H146.669Z" fill="white"/>
<path d="M125.59 52.1634H127.996V56.1497C127.446 56.5438 126.814 56.8462 126.099 57.0569C125.384 57.2677 124.669 57.3731 123.955 57.3731C122.947 57.3731 122.039 57.1623 121.233 56.7408C120.427 56.3101 119.794 55.7144 119.336 54.9538C118.878 54.1932 118.649 53.3318 118.649 52.3696C118.649 51.4074 118.878 50.546 119.336 49.7854C119.794 49.0248 120.431 48.4337 121.247 48.0121C122.062 47.5814 122.983 47.3661 124.01 47.3661C124.908 47.3661 125.714 47.5173 126.429 47.8197C127.144 48.1221 127.739 48.5574 128.216 49.1256L126.484 50.6926C125.833 49.9778 125.054 49.6204 124.147 49.6204C123.322 49.6204 122.658 49.8724 122.154 50.3764C121.65 50.8713 121.398 51.5357 121.398 52.3696C121.398 52.9011 121.512 53.3776 121.742 53.7992C121.971 54.2115 122.291 54.5369 122.704 54.7751C123.116 55.0042 123.588 55.1188 124.12 55.1188C124.642 55.1188 125.132 55.0134 125.59 54.8026V52.1634Z" fill="white"/>
<path d="M133.928 54.6239H132.443V57.1807H129.721V47.5585H134.12C134.991 47.5585 135.747 47.7052 136.388 47.9984C137.03 48.2825 137.525 48.6949 137.873 49.2355C138.221 49.767 138.395 50.3948 138.395 51.1187C138.395 51.8152 138.23 52.4246 137.9 52.9469C137.58 53.4601 137.117 53.8633 136.512 54.1566L138.588 57.1807H135.673L133.928 54.6239ZM135.646 51.1187C135.646 50.6697 135.504 50.3215 135.22 50.074C134.936 49.8266 134.514 49.7029 133.955 49.7029H132.443V52.5208H133.955C134.514 52.5208 134.936 52.4017 135.22 52.1634C135.504 51.916 135.646 51.5678 135.646 51.1187Z" fill="white"/>
<path d="M139.897 47.5585H142.618V57.1807H139.897V47.5585Z" fill="white"/>
<path d="M144.555 47.5585H147.276V55.0226H151.867V57.1807H144.555V47.5585Z" fill="white"/>
<path d="M152.944 47.5585H155.666V55.0226H160.257V57.1807H152.944V47.5585Z" fill="white"/>
<path d="M169.059 55.0775V57.1807H161.334V47.5585H168.881V49.6617H164.028V51.2837H168.303V53.3181H164.028V55.0775H169.059Z" fill="white"/>
<path d="M173.951 57.3731C173.172 57.3731 172.416 57.2769 171.683 57.0844C170.95 56.892 170.354 56.6354 169.896 56.3147L170.79 54.3078C171.22 54.5918 171.72 54.8209 172.288 54.9951C172.856 55.1692 173.415 55.2562 173.965 55.2562C175.01 55.2562 175.532 54.9951 175.532 54.4727C175.532 54.1978 175.381 53.9962 175.078 53.8679C174.785 53.7304 174.309 53.5884 173.649 53.4418C172.925 53.286 172.32 53.121 171.834 52.9469C171.349 52.7636 170.932 52.475 170.584 52.0809C170.235 51.6869 170.061 51.1554 170.061 50.4864C170.061 49.8999 170.222 49.373 170.542 48.9056C170.863 48.4291 171.34 48.0534 171.972 47.7785C172.613 47.5036 173.397 47.3661 174.322 47.3661C174.955 47.3661 175.578 47.4394 176.192 47.586C176.806 47.7235 177.347 47.9297 177.814 48.2046L176.975 50.2252C176.059 49.7304 175.17 49.483 174.309 49.483C173.768 49.483 173.374 49.5654 173.127 49.7304C172.879 49.8862 172.755 50.0924 172.755 50.349C172.755 50.6055 172.902 50.798 173.195 50.9263C173.489 51.0546 173.96 51.1874 174.611 51.3249C175.344 51.4807 175.949 51.6502 176.426 51.8335C176.911 52.0076 177.328 52.2917 177.676 52.6857C178.034 53.0706 178.213 53.5976 178.213 54.2665C178.213 54.8439 178.052 55.3662 177.731 55.8336C177.411 56.3009 176.93 56.6766 176.288 56.9607C175.647 57.2356 174.868 57.3731 173.951 57.3731Z" fill="white"/>
<path d="M121.211 65.8264C121.816 65.8264 122.278 65.9748 122.597 66.2717C122.921 66.5687 123.083 67.0113 123.083 67.5996V70.2388H122.333V69.6615C122.201 69.8649 122.011 70.0216 121.764 70.1316C121.522 70.2361 121.233 70.2883 120.898 70.2883C120.408 70.2883 120.015 70.1701 119.718 69.9336C119.427 69.6972 119.281 69.3866 119.281 69.0017C119.281 68.6168 119.421 68.3089 119.702 68.078C119.982 67.8415 120.428 67.7233 121.038 67.7233H122.292V67.5666C122.292 67.2257 122.193 66.9645 121.995 66.7831C121.797 66.6016 121.505 66.5109 121.12 66.5109C120.862 66.5109 120.609 66.5549 120.362 66.6429C120.114 66.7254 119.905 66.8381 119.735 66.981L119.405 66.3872C119.63 66.2058 119.9 66.0683 120.213 65.9748C120.527 65.8759 120.859 65.8264 121.211 65.8264ZM121.03 69.678C121.332 69.678 121.593 69.612 121.813 69.48C122.033 69.3426 122.193 69.1501 122.292 68.9027V68.2924H121.071C120.4 68.2924 120.065 68.5178 120.065 68.9687C120.065 69.1886 120.15 69.3618 120.32 69.4883C120.491 69.6147 120.727 69.678 121.03 69.678Z" fill="white"/>
<path d="M126.883 65.8264C127.438 65.8264 127.878 65.9886 128.202 66.313C128.532 66.6319 128.697 67.102 128.697 67.7233V70.2388H127.905V67.814C127.905 67.3907 127.804 67.0718 127.6 66.8573C127.397 66.6429 127.105 66.5357 126.726 66.5357C126.297 66.5357 125.959 66.6621 125.711 66.9151C125.464 67.1625 125.34 67.5199 125.34 67.9872V70.2388H124.549V65.8676H125.307V66.5274C125.467 66.302 125.681 66.1288 125.951 66.0078C126.226 65.8869 126.536 65.8264 126.883 65.8264Z" fill="white"/>
<path d="M134.31 64.1191V70.2388H133.552V69.546C133.376 69.7879 133.153 69.9721 132.883 70.0986C132.614 70.2251 132.317 70.2883 131.993 70.2883C131.569 70.2883 131.19 70.1948 130.855 70.0079C130.519 69.8209 130.255 69.5598 130.063 69.2244C129.876 68.8835 129.782 68.4931 129.782 68.0532C129.782 67.6133 129.876 67.2257 130.063 66.8903C130.255 66.5549 130.519 66.2937 130.855 66.1068C131.19 65.9199 131.569 65.8264 131.993 65.8264C132.306 65.8264 132.595 65.8869 132.859 66.0078C133.123 66.1233 133.343 66.2965 133.519 66.5274V64.1191H134.31ZM132.059 69.5955C132.334 69.5955 132.584 69.5323 132.809 69.4058C133.035 69.2738 133.211 69.0924 133.337 68.8615C133.464 68.625 133.527 68.3556 133.527 68.0532C133.527 67.7508 133.464 67.4841 133.337 67.2532C133.211 67.0168 133.035 66.8353 132.809 66.7089C132.584 66.5824 132.334 66.5192 132.059 66.5192C131.778 66.5192 131.525 66.5824 131.3 66.7089C131.08 66.8353 130.904 67.0168 130.772 67.2532C130.646 67.4841 130.582 67.7508 130.582 68.0532C130.582 68.3556 130.646 68.625 130.772 68.8615C130.904 69.0924 131.08 69.2738 131.3 69.4058C131.525 69.5323 131.778 69.5955 132.059 69.5955Z" fill="white"/>
<path d="M140.357 65.8264C140.913 65.8264 141.353 65.9886 141.677 66.313C142.007 66.6319 142.172 67.102 142.172 67.7233V70.2388H141.38V67.814C141.38 67.3907 141.278 67.0718 141.075 66.8573C140.871 66.6429 140.58 66.5357 140.201 66.5357C139.772 66.5357 139.434 66.6621 139.186 66.9151C138.939 67.1625 138.815 67.5199 138.815 67.9872V70.2388H138.023V65.8676H138.782V66.5274C138.942 66.302 139.156 66.1288 139.425 66.0078C139.7 65.8869 140.011 65.8264 140.357 65.8264Z" fill="white"/>
<path d="M145.533 70.2883C145.099 70.2883 144.709 70.1921 144.362 69.9996C144.016 69.8072 143.744 69.5433 143.546 69.2079C143.353 68.867 143.257 68.4821 143.257 68.0532C143.257 67.6243 143.353 67.2422 143.546 66.9068C143.744 66.5659 144.016 66.302 144.362 66.115C144.709 65.9226 145.099 65.8264 145.533 65.8264C145.968 65.8264 146.355 65.9226 146.696 66.115C147.043 66.302 147.312 66.5659 147.505 66.9068C147.703 67.2422 147.802 67.6243 147.802 68.0532C147.802 68.4821 147.703 68.867 147.505 69.2079C147.312 69.5433 147.043 69.8072 146.696 69.9996C146.355 70.1921 145.968 70.2883 145.533 70.2883ZM145.533 69.5955C145.814 69.5955 146.064 69.5323 146.284 69.4058C146.509 69.2738 146.685 69.0924 146.812 68.8615C146.938 68.625 147.002 68.3556 147.002 68.0532C147.002 67.7508 146.938 67.4841 146.812 67.2532C146.685 67.0168 146.509 66.8353 146.284 66.7089C146.064 66.5824 145.814 66.5192 145.533 66.5192C145.253 66.5192 145 66.5824 144.775 66.7089C144.555 66.8353 144.379 67.0168 144.247 67.2532C144.12 67.4841 144.057 67.7508 144.057 68.0532C144.057 68.3556 144.12 68.625 144.247 68.8615C144.379 69.0924 144.555 69.2738 144.775 69.4058C145 69.5323 145.253 69.5955 145.533 69.5955Z" fill="white"/>
<path d="M151.354 69.9831C151.239 70.0821 151.096 70.1591 150.925 70.2141C150.755 70.2635 150.579 70.2883 150.398 70.2883C149.958 70.2883 149.617 70.1701 149.375 69.9336C149.133 69.6972 149.012 69.3591 149.012 68.9192V66.5192H148.27V65.8676H149.012V64.9109H149.804V65.8676H151.057V66.5192H149.804V68.8862C149.804 69.1226 149.861 69.3041 149.977 69.4305C150.098 69.557 150.268 69.6202 150.488 69.6202C150.73 69.6202 150.936 69.5515 151.107 69.4141L151.354 69.9831Z" fill="white"/>
<path d="M156.399 70.2883C155.964 70.2883 155.574 70.1921 155.227 69.9996C154.881 69.8072 154.609 69.5433 154.411 69.2079C154.219 68.867 154.122 68.4821 154.122 68.0532C154.122 67.6243 154.219 67.2422 154.411 66.9068C154.609 66.5659 154.881 66.302 155.227 66.115C155.574 65.9226 155.964 65.8264 156.399 65.8264C156.833 65.8264 157.221 65.9226 157.562 66.115C157.908 66.302 158.177 66.5659 158.37 66.9068C158.568 67.2422 158.667 67.6243 158.667 68.0532C158.667 68.4821 158.568 68.867 158.37 69.2079C158.177 69.5433 157.908 69.8072 157.562 69.9996C157.221 70.1921 156.833 70.2883 156.399 70.2883ZM156.399 69.5955C156.679 69.5955 156.929 69.5323 157.149 69.4058C157.375 69.2738 157.551 69.0924 157.677 68.8615C157.803 68.625 157.867 68.3556 157.867 68.0532C157.867 67.7508 157.803 67.4841 157.677 67.2532C157.551 67.0168 157.375 66.8353 157.149 66.7089C156.929 66.5824 156.679 66.5192 156.399 66.5192C156.118 66.5192 155.865 66.5824 155.64 66.7089C155.42 66.8353 155.244 67.0168 155.112 67.2532C154.986 67.4841 154.922 67.7508 154.922 68.0532C154.922 68.3556 154.986 68.625 155.112 68.8615C155.244 69.0924 155.42 69.2738 155.64 69.4058C155.865 69.5323 156.118 69.5955 156.399 69.5955Z" fill="white"/>
<path d="M162.096 65.8264C162.651 65.8264 163.091 65.9886 163.415 66.313C163.745 66.6319 163.91 67.102 163.91 67.7233V70.2388H163.118V67.814C163.118 67.3907 163.017 67.0718 162.813 66.8573C162.61 66.6429 162.318 66.5357 161.939 66.5357C161.51 66.5357 161.172 66.6621 160.925 66.9151C160.677 67.1625 160.553 67.5199 160.553 67.9872V70.2388H159.762V65.8676H160.52V66.5274C160.68 66.302 160.894 66.1288 161.164 66.0078C161.439 65.8869 161.749 65.8264 162.096 65.8264Z" fill="white"/>
<path d="M165.375 64.1191H166.167V70.2388H165.375V64.1191Z" fill="white"/>
<path d="M171.547 65.8676L169.427 70.6759C169.241 71.1213 169.021 71.4347 168.768 71.6161C168.52 71.7976 168.221 71.8883 167.869 71.8883C167.654 71.8883 167.445 71.8526 167.242 71.7811C167.044 71.7151 166.879 71.6161 166.747 71.4842L167.085 70.8904C167.311 71.1048 167.572 71.212 167.869 71.212C168.061 71.212 168.221 71.1598 168.347 71.0553C168.479 70.9563 168.597 70.7831 168.702 70.5357L168.842 70.2306L166.912 65.8676H167.737L169.263 69.3646L170.772 65.8676H171.547Z" fill="white"/>
<path d="M0.821289 4.07421C0.821289 1.86508 2.61215 0.0742188 4.82129 0.0742188H97.4243V100.877H4.82129C2.61215 100.877 0.821289 99.0865 0.821289 96.8774V4.07421Z" fill="#8AC83F"/>
<g clip-path="url(#clip0)">
<path d="M41.0186 70.6703L41.7312 70.5832C47.4869 69.4408 51.647 67.566 54.4806 65.2191C56.96 63.1655 58.4654 60.7105 59.2137 57.9763C59.9559 55.3076 59.9285 52.4909 59.4194 49.5899C58.7554 45.911 57.2803 42.1789 55.3987 38.6023C55.3695 38.5661 55.3403 38.5298 55.3757 38.5005C52.4166 32.8562 48.5967 27.683 45.7916 24.2068L45.7332 24.1344L45.6455 24.0257C45.6163 23.9895 45.5871 23.9533 45.5516 23.9826C45.5224 23.9464 45.4932 23.9102 45.4578 23.9396C45.4432 23.9214 45.427 23.9197 45.4109 23.918C45.3947 23.9163 45.3785 23.9146 45.3639 23.8965C45.3493 23.8784 45.3332 23.8766 45.317 23.8749C45.3008 23.8732 45.2847 23.8715 45.2701 23.8534C45.252 23.831 45.2316 23.8337 45.2033 23.8373C45.1859 23.8396 45.1655 23.8423 45.1408 23.8396L45.0115 23.8259C44.9743 23.8219 44.9585 23.8203 44.9451 23.8251C44.9351 23.8287 44.9265 23.8359 44.9114 23.8483L44.7822 23.8346C44.7644 23.8493 44.7483 23.8475 44.7321 23.8458C44.716 23.8441 44.6998 23.8424 44.6821 23.8571C44.6644 23.8717 44.6482 23.87 44.6321 23.8683C44.6159 23.8666 44.5997 23.8649 44.582 23.8795C44.5466 23.9089 44.5466 23.9089 44.482 23.902C44.4643 23.9167 44.4393 23.9223 44.4142 23.9279C44.3892 23.9335 44.3642 23.9391 44.3465 23.9538L44.2757 24.0125L44.1694 24.1005C40.7398 26.8806 35.9625 31.1394 32.0344 36.0844L30.1349 38.5638C27.1569 42.7822 24.9652 47.316 24.6313 51.8819C24.3425 55.625 25.3297 59.3382 28.2411 62.7265C30.5911 65.4923 34.3345 68.1107 39.5446 70.32L40.2816 70.4951L41.0186 70.6703ZM56.4965 47.359L42.7543 59.7679L43.6347 50.4601L54.0226 41.0711C55.0355 43.1319 55.8776 45.2739 56.4965 47.359ZM44.7095 26.6738C47.2162 29.8535 50.364 34.1937 52.922 38.9016L43.9633 46.9861L44.9616 36.433C45.0236 35.7775 44.556 35.1981 43.9096 35.1294C43.2632 35.0606 42.6965 35.53 42.6345 36.1855L41.6363 46.7386L34.3703 36.9287C37.7591 32.8532 41.6571 29.2623 44.7095 26.6738ZM31.998 39.9205C32.2937 39.5547 32.5895 39.1889 32.856 38.7869L41.2784 50.1764L40.4272 59.5204L29.2537 44.4287C30.0489 42.9243 30.9442 41.3974 31.998 39.9205ZM29.9829 61.2234C27.5452 58.349 26.6961 55.2463 26.9291 52.0932C27.0611 50.3527 27.487 48.6104 28.1716 46.8957L40.0632 63.0237L39.6044 67.8743C35.1575 65.8786 32.0053 63.6565 29.9829 61.2234ZM41.9607 68.1579L42.4195 63.3074L57.095 50.0047C57.095 50.0047 57.1242 50.0409 57.0888 50.0703C57.5704 52.5711 57.6288 55.0601 56.9885 57.3424C56.3837 59.5953 55.0802 61.6415 53.0196 63.4085C50.5756 65.4328 46.9929 67.0711 41.9607 68.1579Z" fill="#42474A"/>
<path d="M41.0186 70.6703L41.7312 70.5832C47.4869 69.4408 51.647 67.566 54.4806 65.2191C56.96 63.1655 58.4654 60.7105 59.2137 57.9763C59.9559 55.3076 59.9285 52.4909 59.4194 49.5899C58.7554 45.911 57.2803 42.1789 55.3987 38.6023C55.3695 38.5661 55.3403 38.5298 55.3757 38.5005C52.4166 32.8562 48.5967 27.683 45.7916 24.2068L45.7332 24.1344L45.6455 24.0257C45.6163 23.9895 45.5871 23.9533 45.5516 23.9826C45.5224 23.9464 45.4932 23.9102 45.4578 23.9396C45.4432 23.9214 45.427 23.9197 45.4109 23.918C45.3947 23.9163 45.3785 23.9146 45.3639 23.8965C45.3493 23.8784 45.3332 23.8766 45.317 23.8749C45.3008 23.8732 45.2847 23.8715 45.2701 23.8534C45.252 23.831 45.2316 23.8337 45.2033 23.8373C45.1859 23.8396 45.1655 23.8423 45.1408 23.8396L45.0115 23.8259C44.9743 23.8219 44.9585 23.8203 44.9451 23.8251C44.9351 23.8287 44.9265 23.8359 44.9114 23.8483L44.7822 23.8346C44.7644 23.8493 44.7483 23.8475 44.7321 23.8458C44.716 23.8441 44.6998 23.8424 44.6821 23.8571C44.6644 23.8717 44.6482 23.87 44.6321 23.8683C44.6159 23.8666 44.5997 23.8649 44.582 23.8795C44.5466 23.9089 44.5466 23.9089 44.482 23.902C44.4643 23.9167 44.4393 23.9223 44.4142 23.9279C44.3892 23.9335 44.3642 23.9391 44.3465 23.9538L44.2757 24.0125L44.1694 24.1005C40.7398 26.8806 35.9625 31.1394 32.0344 36.0844L30.1349 38.5638C27.1569 42.7822 24.9652 47.316 24.6313 51.8819C24.3425 55.625 25.3297 59.3382 28.2411 62.7265C30.5911 65.4923 34.3345 68.1107 39.5446 70.32L40.2816 70.4951L41.0186 70.6703ZM56.4965 47.359L42.7543 59.7679L43.6347 50.4601L54.0226 41.0711C55.0355 43.1319 55.8776 45.2739 56.4965 47.359ZM44.7095 26.6738C47.2162 29.8535 50.364 34.1937 52.922 38.9016L43.9633 46.9861L44.9616 36.433C45.0236 35.7775 44.556 35.1981 43.9096 35.1294C43.2632 35.0606 42.6965 35.53 42.6345 36.1855L41.6363 46.7386L34.3703 36.9287C37.7591 32.8532 41.6571 29.2623 44.7095 26.6738ZM31.998 39.9205C32.2937 39.5547 32.5895 39.1889 32.856 38.7869L41.2784 50.1764L40.4272 59.5204L29.2537 44.4287C30.0489 42.9243 30.9442 41.3974 31.998 39.9205ZM29.9829 61.2234C27.5452 58.349 26.6961 55.2463 26.9291 52.0932C27.0611 50.3527 27.487 48.6104 28.1716 46.8957L40.0632 63.0237L39.6044 67.8743C35.1575 65.8786 32.0053 63.6565 29.9829 61.2234ZM41.9607 68.1579L42.4195 63.3074L57.095 50.0047C57.095 50.0047 57.1242 50.0409 57.0888 50.0703C57.5704 52.5711 57.6288 55.0601 56.9885 57.3424C56.3837 59.5953 55.0802 61.6415 53.0196 63.4085C50.5756 65.4328 46.9929 67.0711 41.9607 68.1579Z" stroke="#42474A"/>
<path d="M47.4534 40.5079L37.552 46.3029L34.1781 56.4633L36.1633 65.7921L41.8393 71.3103L52.4144 74.0573L61.6099 69.7721L68.1061 60.1809L74.1768 43.3655L70.4171 42.1442L59.799 40.0008L47.4534 40.5079Z" fill="#AFEB65"/>
<path d="M35.8946 67.9275L36.4171 68.428C40.9718 72.1919 45.0641 74.2479 48.6675 74.9707C51.8206 75.6032 54.6565 75.2219 57.2209 74.0736C59.7313 72.9619 61.8622 71.1565 63.7491 68.9222C66.1302 66.0744 68.0327 62.5605 69.5566 58.8282C69.5656 58.7825 69.5745 58.7368 69.6195 58.7458C72.0309 52.8637 73.5321 46.609 74.3884 42.2202L74.4062 42.1288L74.433 41.9916C74.4419 41.9459 74.4508 41.9002 74.4058 41.8912C74.4147 41.8454 74.4236 41.7997 74.3786 41.7907C74.3831 41.7678 74.374 41.7541 74.365 41.7405C74.356 41.7268 74.3469 41.7131 74.3514 41.6902C74.3558 41.6674 74.3468 41.6537 74.3378 41.64C74.3288 41.6263 74.3197 41.6126 74.3242 41.5897C74.3297 41.5615 74.3146 41.5473 74.2937 41.5276C74.2808 41.5154 74.2657 41.5012 74.2519 41.4802L74.1797 41.3707C74.1589 41.3392 74.15 41.3258 74.1377 41.3184C74.1286 41.313 74.1176 41.3108 74.0985 41.307L74.0263 41.1975C74.0038 41.1929 73.9947 41.1792 73.9857 41.1656C73.9767 41.1519 73.9676 41.1382 73.9451 41.1337C73.9226 41.1291 73.9136 41.1155 73.9045 41.1018C73.8955 41.0881 73.8865 41.0744 73.8639 41.0699C73.8449 41.0661 73.8339 41.0638 73.8248 41.0584C73.8124 41.051 73.8036 41.0377 73.7828 41.0061C73.7603 41.0016 73.74 40.9856 73.7197 40.9697C73.6994 40.9537 73.6791 40.9378 73.6566 40.9333L73.5665 40.9152L73.4313 40.8881C69.1161 39.975 62.8105 38.9478 56.5249 39.0171L53.4182 39.1066C48.2949 39.4566 43.4342 40.6194 39.7379 43.2509C36.6981 45.3965 34.4977 48.5181 33.7765 52.934C33.1709 56.518 33.5693 61.095 35.2185 66.5564L35.5565 67.242L35.8946 67.9275ZM63.5801 65.2304L45.321 62.3755L52.9838 57.1667L66.7929 59.319C65.8693 61.414 64.7744 63.4272 63.5801 65.2304ZM71.8142 42.939C70.9932 46.9073 69.6971 52.1106 67.7433 57.0868L55.8438 55.2225L64.5319 49.3168C65.0715 48.95 65.2142 48.2185 64.853 47.671C64.4917 47.1235 63.7711 46.9789 63.2314 47.3457L54.5434 53.2515L57.3758 41.3731C62.653 41.434 67.8865 42.1987 71.8142 42.939ZM53.5756 41.4184L53.5757 41.4184C54.0439 41.4174 54.5122 41.4163 54.9894 41.3695L51.6922 55.1499L44.0205 60.4044L48.3809 42.1342C50.0373 41.8013 51.7748 41.5323 53.5756 41.4184ZM36.0376 53.34C36.67 49.6189 38.4932 46.9917 41.0473 45.1762C42.4592 44.1768 44.0608 43.4054 45.8067 42.853L41.1154 62.3395L37.1222 65.054C35.7985 60.3229 35.4761 56.4578 36.0376 53.34ZM38.4137 67.0708L42.407 64.3563L61.9451 67.3727C61.9451 67.3727 61.9362 67.4184 61.8912 67.4094C60.2919 69.3689 58.4308 70.9908 56.2803 71.9372C54.1749 72.8925 51.78 73.1722 49.1135 72.6849C46.0055 72.0615 42.4632 70.3058 38.4137 67.0708Z" fill="#42474A"/>
<path d="M35.8946 67.9275L36.4171 68.428C40.9718 72.1919 45.0641 74.2479 48.6675 74.9707C51.8206 75.6032 54.6565 75.2219 57.2209 74.0736C59.7313 72.9619 61.8622 71.1565 63.7491 68.9222C66.1302 66.0744 68.0327 62.5605 69.5566 58.8282C69.5656 58.7825 69.5745 58.7368 69.6195 58.7458C72.0309 52.8637 73.5321 46.609 74.3884 42.2202L74.4062 42.1288L74.433 41.9916C74.4419 41.9459 74.4508 41.9002 74.4058 41.8912C74.4147 41.8454 74.4236 41.7997 74.3786 41.7907C74.3831 41.7678 74.374 41.7541 74.365 41.7405C74.356 41.7268 74.3469 41.7131 74.3514 41.6902C74.3558 41.6674 74.3468 41.6537 74.3378 41.64C74.3288 41.6263 74.3197 41.6126 74.3242 41.5897C74.3297 41.5615 74.3146 41.5473 74.2937 41.5276C74.2808 41.5154 74.2657 41.5012 74.2519 41.4802L74.1797 41.3707C74.1589 41.3392 74.15 41.3258 74.1377 41.3184C74.1286 41.313 74.1176 41.3108 74.0985 41.307L74.0263 41.1975C74.0038 41.1929 73.9947 41.1792 73.9857 41.1656C73.9767 41.1519 73.9676 41.1382 73.9451 41.1337C73.9226 41.1291 73.9136 41.1155 73.9045 41.1018C73.8955 41.0881 73.8865 41.0744 73.8639 41.0699C73.8449 41.0661 73.8339 41.0638 73.8248 41.0584C73.8124 41.051 73.8036 41.0377 73.7828 41.0061C73.7603 41.0016 73.74 40.9856 73.7197 40.9697C73.6994 40.9537 73.6791 40.9378 73.6566 40.9333L73.5665 40.9152L73.4313 40.8881C69.1161 39.975 62.8105 38.9478 56.5249 39.0171L53.4182 39.1066C48.2949 39.4566 43.4342 40.6194 39.7379 43.2509C36.6981 45.3965 34.4977 48.5181 33.7765 52.934C33.1709 56.518 33.5693 61.095 35.2185 66.5564L35.5565 67.242L35.8946 67.9275ZM63.5801 65.2304L45.321 62.3755L52.9838 57.1667L66.7929 59.319C65.8693 61.414 64.7744 63.4272 63.5801 65.2304ZM71.8142 42.939C70.9932 46.9073 69.6971 52.1106 67.7433 57.0868L55.8438 55.2225L64.5319 49.3168C65.0715 48.95 65.2142 48.2185 64.853 47.671C64.4917 47.1235 63.7711 46.9789 63.2314 47.3457L54.5434 53.2515L57.3758 41.3731C62.653 41.434 67.8865 42.1987 71.8142 42.939ZM53.5756 41.4184L53.5757 41.4184C54.0439 41.4174 54.5122 41.4163 54.9894 41.3695L51.6922 55.1499L44.0205 60.4044L48.3809 42.1342C50.0373 41.8013 51.7748 41.5323 53.5756 41.4184ZM36.0376 53.34C36.67 49.6189 38.4932 46.9917 41.0473 45.1762C42.4592 44.1768 44.0608 43.4054 45.8067 42.853L41.1154 62.3395L37.1222 65.054C35.7985 60.3229 35.4761 56.4578 36.0376 53.34ZM38.4137 67.0708L42.407 64.3563L61.9451 67.3727C61.9451 67.3727 61.9362 67.4184 61.8912 67.4094C60.2919 69.3689 58.4308 70.9908 56.2803 71.9372C54.1749 72.8925 51.78 73.1722 49.1135 72.6849C46.0055 72.0615 42.4632 70.3058 38.4137 67.0708Z" stroke="#97D64A"/>
</g>
<defs>
<clipPath id="clip0">
<rect width="55.4417" height="59.6419" fill="white" transform="translate(21.4023 20.6548)"/>
</clipPath>
</defs>
</svg>
