<svg width="108" height="45" viewBox="0 0 108 45" fill="none" xmlns="http://www.w3.org/2000/svg">
<g clip-path="url(#clip0)">
<path d="M14.4517 37.3981L14.9764 37.3341C19.2142 36.4935 22.2768 35.112 24.3625 33.3816C26.1875 31.8675 27.2951 30.0568 27.8451 28.0398C28.3905 26.0713 28.3693 23.9932 27.9934 21.8527C27.503 19.1382 26.4154 16.3842 25.0286 13.7447C25.0071 13.718 24.9855 13.6913 25.0116 13.6697C22.8305 9.50425 20.0158 5.68617 17.9489 3.12039L17.9059 3.06694L17.8413 2.98676C17.8197 2.96003 17.7982 2.9333 17.7721 2.95493C17.7506 2.92821 17.7291 2.90148 17.703 2.92311C17.6922 2.90975 17.6803 2.90847 17.6684 2.9072C17.6565 2.90592 17.6446 2.90465 17.6339 2.89128C17.6231 2.87792 17.6112 2.87665 17.5993 2.87537C17.5874 2.8741 17.5755 2.87282 17.5647 2.85946C17.5514 2.84294 17.5364 2.8449 17.5156 2.84759C17.5028 2.84926 17.4877 2.85121 17.4695 2.84927L17.3743 2.83907C17.347 2.83614 17.3353 2.8349 17.3254 2.83849C17.3181 2.84114 17.3117 2.84642 17.3007 2.85561L17.2055 2.84541C17.1924 2.85623 17.1805 2.85495 17.1686 2.85368C17.1567 2.8524 17.1448 2.85113 17.1318 2.86195C17.1188 2.87276 17.1069 2.87149 17.095 2.87021C17.0831 2.86894 17.0712 2.86766 17.0581 2.87848C17.0321 2.90011 17.0321 2.90011 16.9844 2.89501C16.9714 2.90583 16.953 2.90996 16.9346 2.91409C16.9162 2.91823 16.8977 2.92236 16.8847 2.93317L16.8326 2.97643L16.7544 3.04132C14.23 5.09107 10.7138 8.23127 7.82311 11.878L6.42538 13.7065C4.23408 16.8176 2.6219 20.1617 2.37769 23.5301C2.16646 26.2916 2.89479 29.0315 5.03988 31.5324C6.77136 33.5738 9.52881 35.5071 13.3662 37.1391L13.9089 37.2686L14.4517 37.3981ZM25.8402 20.2057L15.7257 29.3553L16.3705 22.4886L24.0162 15.5656C24.7629 17.0865 25.3837 18.6671 25.8402 20.2057ZM17.153 4.94004C19 7.28691 21.3196 10.4903 23.205 13.9646L16.6112 19.9257L17.3423 12.1402C17.3877 11.6567 17.0432 11.229 16.5672 11.1781C16.0912 11.1271 15.6741 11.4732 15.6287 11.9567L14.8975 19.7422L9.54348 12.5018C12.0374 9.49638 14.9064 6.84858 17.153 4.94004ZM7.79774 14.7082C8.01539 14.4385 8.23304 14.1687 8.42916 13.8722L14.6353 22.2784L14.012 29.1718L5.77868 18.0331C6.36367 16.9235 7.02234 15.7974 7.79774 14.7082ZM6.3219 30.4242C4.52583 28.3025 3.89943 26.0131 4.0698 23.6869C4.16634 22.4029 4.47935 21.1176 4.98276 19.8528L13.7453 31.7563L13.4093 35.3347C10.134 33.8606 7.81201 32.22 6.3219 30.4242ZM15.1444 35.5449L15.4805 31.9665L26.2819 22.1578C26.2819 22.1578 26.3035 22.1846 26.2774 22.2062C26.633 24.0515 26.6769 25.8878 26.2063 27.5713C25.7617 29.2332 24.8027 30.7423 23.286 32.0452C21.4871 33.5377 18.8496 34.745 15.1444 35.5449Z" fill="#97D64A"/>
<path d="M14.4517 37.3981L14.9764 37.3341C19.2142 36.4935 22.2768 35.112 24.3625 33.3816C26.1875 31.8675 27.2951 30.0568 27.8451 28.0398C28.3905 26.0713 28.3693 23.9932 27.9934 21.8527C27.503 19.1382 26.4154 16.3842 25.0286 13.7447C25.0071 13.718 24.9855 13.6913 25.0116 13.6697C22.8305 9.50425 20.0158 5.68617 17.9489 3.12039L17.9059 3.06694L17.8413 2.98676C17.8197 2.96003 17.7982 2.9333 17.7721 2.95493C17.7506 2.92821 17.7291 2.90148 17.703 2.92311C17.6922 2.90975 17.6803 2.90847 17.6684 2.9072C17.6565 2.90592 17.6446 2.90465 17.6339 2.89128C17.6231 2.87792 17.6112 2.87665 17.5993 2.87537C17.5874 2.8741 17.5755 2.87282 17.5647 2.85946C17.5514 2.84294 17.5364 2.8449 17.5156 2.84759C17.5028 2.84926 17.4877 2.85121 17.4695 2.84927L17.3743 2.83907C17.347 2.83614 17.3353 2.8349 17.3254 2.83849C17.3181 2.84114 17.3117 2.84642 17.3007 2.85561L17.2055 2.84541C17.1924 2.85623 17.1805 2.85495 17.1686 2.85368C17.1567 2.8524 17.1448 2.85113 17.1318 2.86195C17.1188 2.87276 17.1069 2.87149 17.095 2.87021C17.0831 2.86894 17.0712 2.86766 17.0581 2.87848C17.0321 2.90011 17.0321 2.90011 16.9844 2.89501C16.9714 2.90583 16.953 2.90996 16.9346 2.91409C16.9162 2.91823 16.8977 2.92236 16.8847 2.93317L16.8326 2.97643L16.7544 3.04132C14.23 5.09107 10.7138 8.23127 7.82311 11.878L6.42538 13.7065C4.23408 16.8176 2.6219 20.1617 2.37769 23.5301C2.16646 26.2916 2.89479 29.0315 5.03988 31.5324C6.77136 33.5738 9.52881 35.5071 13.3662 37.1391L13.9089 37.2686L14.4517 37.3981ZM25.8402 20.2057L15.7257 29.3553L16.3705 22.4886L24.0162 15.5656C24.7629 17.0865 25.3837 18.6671 25.8402 20.2057ZM17.153 4.94004C19 7.28691 21.3196 10.4903 23.205 13.9646L16.6112 19.9257L17.3423 12.1402C17.3877 11.6567 17.0432 11.229 16.5672 11.1781C16.0912 11.1271 15.6741 11.4732 15.6287 11.9567L14.8975 19.7422L9.54348 12.5018C12.0374 9.49638 14.9064 6.84858 17.153 4.94004ZM7.79774 14.7082C8.01539 14.4385 8.23304 14.1687 8.42916 13.8722L14.6353 22.2784L14.012 29.1718L5.77868 18.0331C6.36367 16.9235 7.02234 15.7974 7.79774 14.7082ZM6.3219 30.4242C4.52583 28.3025 3.89943 26.0131 4.0698 23.6869C4.16634 22.4029 4.47935 21.1176 4.98276 19.8528L13.7453 31.7563L13.4093 35.3347C10.134 33.8606 7.81201 32.22 6.3219 30.4242ZM15.1444 35.5449L15.4805 31.9665L26.2819 22.1578C26.2819 22.1578 26.3035 22.1846 26.2774 22.2062C26.633 24.0515 26.6769 25.8878 26.2063 27.5713C25.7617 29.2332 24.8027 30.7423 23.286 32.0452C21.4871 33.5377 18.8496 34.745 15.1444 35.5449Z" stroke="#97D64A"/>
<path d="M18.9242 15.2489L11.7271 19.6814L9.40541 27.2294L11.016 34.0782L15.2829 38.0574L23.1124 39.9142L29.8139 36.6065L34.4434 29.4285L38.6442 16.9289L35.8568 16.0883L28.0053 14.6773L18.9242 15.2489Z" fill="#E9FBD4"/>
<path d="M10.6726 35.3747L11.0573 35.7439C14.4114 38.5207 17.425 40.0375 20.0785 40.5707C22.4004 41.0373 24.4888 40.756 26.3772 39.9088C28.2259 39.0887 29.795 37.7568 31.1846 36.1085C32.938 34.0076 34.339 31.4153 35.4612 28.6618C35.4678 28.6281 35.4744 28.5943 35.5075 28.601C37.2833 24.2616 38.3888 19.6472 39.0193 16.4094L39.0325 16.342L39.0522 16.2408C39.0587 16.2071 39.0653 16.1734 39.0321 16.1667C39.0387 16.133 39.0453 16.0992 39.0121 16.0926C39.0154 16.0757 39.0087 16.0656 39.0021 16.0555C38.9954 16.0454 38.9888 16.0353 38.9921 16.0185C38.9954 16.0016 38.9887 15.9915 38.9821 15.9814C38.9754 15.9713 38.9688 15.9612 38.972 15.9443C38.9761 15.9235 38.965 15.913 38.9496 15.8985C38.9401 15.8895 38.929 15.879 38.9188 15.8636L38.8656 15.7828C38.8503 15.7595 38.8438 15.7496 38.8347 15.7442C38.828 15.7402 38.8199 15.7385 38.8059 15.7357L38.7527 15.6549C38.7361 15.6516 38.7294 15.6415 38.7228 15.6314C38.7161 15.6213 38.7095 15.6112 38.6929 15.6079C38.6763 15.6045 38.6696 15.5944 38.663 15.5843C38.6563 15.5742 38.6497 15.5641 38.6331 15.5608C38.6191 15.558 38.611 15.5564 38.6043 15.5524C38.5952 15.5469 38.5887 15.537 38.5733 15.5138C38.5568 15.5104 38.5418 15.4987 38.5269 15.4869C38.5119 15.4751 38.497 15.4634 38.4804 15.46L38.4141 15.4467L38.3146 15.4267C35.1368 14.7531 30.4934 13.9952 25.8647 14.0464L23.5769 14.1124C19.8041 14.3706 16.2247 15.2285 13.5028 17.1698C11.2643 18.7527 9.6439 21.0556 9.11284 24.3134C8.66684 26.9574 8.96024 30.3341 10.1747 34.3632L10.4236 34.8689L10.6726 35.3747ZM31.0601 33.3849L17.6142 31.2787L23.257 27.436L33.426 29.0238C32.7459 30.5694 31.9396 32.0546 31.0601 33.3849ZM37.1237 16.9397C36.5191 19.8673 35.5647 23.7059 34.1259 27.3771L25.3631 26.0018L31.761 21.6448C32.1584 21.3742 32.2635 20.8346 31.9975 20.4307C31.7315 20.0268 31.2007 19.9201 30.8034 20.1907L24.4055 24.5476L26.4913 15.7845C30.3774 15.8294 34.2314 16.3936 37.1237 16.9397ZM23.6929 15.818L23.6929 15.818C24.0377 15.8172 24.3825 15.8164 24.7339 15.7818L22.3059 25.9482L16.6565 29.8246L19.8675 16.346C21.0872 16.1004 22.3667 15.9019 23.6929 15.818ZM10.7779 24.6129C11.2436 21.8677 12.5862 19.9296 14.467 18.5902C15.5068 17.8529 16.6861 17.2838 17.9719 16.8763L14.5172 31.2522L11.5766 33.2548C10.6019 29.7645 10.3644 26.913 10.7779 24.6129ZM12.5277 34.7426L15.4683 32.7401L29.8561 34.9654C29.8561 34.9654 29.8496 34.9991 29.8164 34.9924C28.6387 36.438 27.2682 37.6346 25.6846 38.3327C24.1341 39.0375 22.3706 39.2439 20.407 38.8844C18.1182 38.4245 15.5097 37.1292 12.5277 34.7426Z" fill="#97D64A"/>
<path d="M10.6726 35.3747L11.0573 35.7439C14.4114 38.5207 17.425 40.0375 20.0785 40.5707C22.4004 41.0373 24.4888 40.756 26.3772 39.9088C28.2259 39.0887 29.795 37.7568 31.1846 36.1085C32.938 34.0076 34.339 31.4153 35.4612 28.6618C35.4678 28.6281 35.4744 28.5943 35.5075 28.601C37.2833 24.2616 38.3888 19.6472 39.0193 16.4094L39.0325 16.342L39.0522 16.2408C39.0587 16.2071 39.0653 16.1734 39.0321 16.1667C39.0387 16.133 39.0453 16.0992 39.0121 16.0926C39.0154 16.0757 39.0087 16.0656 39.0021 16.0555C38.9954 16.0454 38.9888 16.0353 38.9921 16.0185C38.9954 16.0016 38.9887 15.9915 38.9821 15.9814C38.9754 15.9713 38.9688 15.9612 38.972 15.9443C38.9761 15.9235 38.965 15.913 38.9496 15.8985C38.9401 15.8895 38.929 15.879 38.9188 15.8636L38.8656 15.7828C38.8503 15.7595 38.8438 15.7496 38.8347 15.7442C38.828 15.7402 38.8199 15.7385 38.8059 15.7357L38.7527 15.6549C38.7361 15.6516 38.7294 15.6415 38.7228 15.6314C38.7161 15.6213 38.7095 15.6112 38.6929 15.6079C38.6763 15.6045 38.6696 15.5944 38.663 15.5843C38.6563 15.5742 38.6497 15.5641 38.6331 15.5608C38.6191 15.558 38.611 15.5564 38.6043 15.5524C38.5952 15.5469 38.5887 15.537 38.5733 15.5138C38.5568 15.5104 38.5418 15.4987 38.5269 15.4869C38.5119 15.4751 38.497 15.4634 38.4804 15.46L38.4141 15.4467L38.3146 15.4267C35.1368 14.7531 30.4934 13.9952 25.8647 14.0464L23.5769 14.1124C19.8041 14.3706 16.2247 15.2285 13.5028 17.1698C11.2643 18.7527 9.6439 21.0556 9.11284 24.3134C8.66684 26.9574 8.96024 30.3341 10.1747 34.3632L10.4236 34.8689L10.6726 35.3747ZM31.0601 33.3849L17.6142 31.2787L23.257 27.436L33.426 29.0238C32.7459 30.5694 31.9396 32.0546 31.0601 33.3849ZM37.1237 16.9397C36.5191 19.8673 35.5647 23.7059 34.1259 27.3771L25.3631 26.0018L31.761 21.6448C32.1584 21.3742 32.2635 20.8346 31.9975 20.4307C31.7315 20.0268 31.2007 19.9201 30.8034 20.1907L24.4055 24.5476L26.4913 15.7845C30.3774 15.8294 34.2314 16.3936 37.1237 16.9397ZM23.6929 15.818L23.6929 15.818C24.0377 15.8172 24.3825 15.8164 24.7339 15.7818L22.3059 25.9482L16.6565 29.8246L19.8675 16.346C21.0872 16.1004 22.3667 15.9019 23.6929 15.818ZM10.7779 24.6129C11.2436 21.8677 12.5862 19.9296 14.467 18.5902C15.5068 17.8529 16.6861 17.2838 17.9719 16.8763L14.5172 31.2522L11.5766 33.2548C10.6019 29.7645 10.3644 26.913 10.7779 24.6129ZM12.5277 34.7426L15.4683 32.7401L29.8561 34.9654C29.8561 34.9654 29.8496 34.9991 29.8164 34.9924C28.6387 36.438 27.2682 37.6346 25.6846 38.3327C24.1341 39.0375 22.3706 39.2439 20.407 38.8844C18.1182 38.4245 15.5097 37.1292 12.5277 34.7426Z" stroke="#97D64A"/>
</g>
<path d="M55.7947 6.85386H53.124V4.90009H60.9125V6.85386H58.2542V13.6112H55.7947V6.85386Z" fill="#365214"/>
<path d="M70.1018 4.90009V13.6112H67.6423V10.2139H64.2884V13.6112H61.8288V4.90009H64.2884V8.17298H67.6423V4.90009H70.1018Z" fill="#365214"/>
<path d="M78.8178 11.7072V13.6112H71.8367V4.90009H78.6563V6.80409H74.2714V8.27253H78.1346V10.1143H74.2714V11.7072H78.8178Z" fill="#365214"/>
<path d="M59.7697 24.0023H61.9435V27.6112C61.4467 27.9679 60.8753 28.2417 60.2293 28.4325C59.5834 28.6233 58.9375 28.7188 58.2915 28.7188C57.3806 28.7188 56.5607 28.5279 55.832 28.1463C55.1032 27.7564 54.5318 27.2171 54.1178 26.5285C53.7037 25.8399 53.4967 25.0601 53.4967 24.189C53.4967 23.3179 53.7037 22.538 54.1178 21.8494C54.5318 21.1608 55.1074 20.6257 55.8444 20.2441C56.5814 19.8542 57.4137 19.6592 58.3412 19.6592C59.1528 19.6592 59.8815 19.7961 60.5274 20.0699C61.1734 20.3436 61.7117 20.7377 62.1423 21.2521L60.5771 22.6708C59.9892 22.0236 59.2853 21.7001 58.4654 21.7001C57.7201 21.7001 57.1197 21.9282 56.6643 22.3845C56.2088 22.8325 55.9811 23.434 55.9811 24.189C55.9811 24.6702 56.0846 25.1016 56.2916 25.4832C56.4986 25.8565 56.7885 26.151 57.1611 26.3668C57.5338 26.5742 57.9603 26.6779 58.4406 26.6779C58.9126 26.6779 59.3557 26.5825 59.7697 26.3916V24.0023Z" fill="#365214"/>
<path d="M67.304 26.2299H65.9624V28.5445H63.5029V19.8334H67.4779C68.2646 19.8334 68.9478 19.9662 69.5275 20.2316C70.1072 20.4888 70.5543 20.8622 70.869 21.3516C71.1837 21.8328 71.3411 22.4011 71.3411 23.0565C71.3411 23.687 71.192 24.2388 70.8939 24.7116C70.604 25.1762 70.1858 25.5413 69.6393 25.8068L71.515 28.5445H68.8815L67.304 26.2299ZM68.8567 23.0565C68.8567 22.65 68.7283 22.3348 68.4716 22.1108C68.2149 21.8868 67.834 21.7748 67.3288 21.7748H65.9624V24.3259H67.3288C67.834 24.3259 68.2149 24.218 68.4716 24.0023C68.7283 23.7783 68.8567 23.463 68.8567 23.0565Z" fill="#365214"/>
<path d="M72.698 19.8334H75.1575V28.5445H72.698V19.8334Z" fill="#365214"/>
<path d="M76.9073 19.8334H79.3668V26.5908H83.5157V28.5445H76.9073V19.8334Z" fill="#365214"/>
<path d="M84.489 19.8334H86.9485V26.5908H91.0974V28.5445H84.489V19.8334Z" fill="#365214"/>
<path d="M99.0518 26.6405V28.5445H92.0707V19.8334H98.8903V21.7374H94.5054V23.2059H98.3686V25.0476H94.5054V26.6405H99.0518Z" fill="#365214"/>
<path d="M103.472 28.7188C102.769 28.7188 102.085 28.6316 101.423 28.4574C100.76 28.2832 100.222 28.0509 99.808 27.7605L100.615 25.9436C101.005 26.2008 101.456 26.4082 101.969 26.5659C102.483 26.7235 102.988 26.8023 103.485 26.8023C104.429 26.8023 104.901 26.5659 104.901 26.093C104.901 25.8441 104.764 25.6616 104.491 25.5454C104.226 25.421 103.795 25.2924 103.199 25.1596C102.545 25.0186 101.998 24.8693 101.559 24.7116C101.121 24.5457 100.744 24.2844 100.429 23.9276C100.114 23.5709 99.957 23.0897 99.957 22.4841C99.957 21.9531 100.102 21.4761 100.392 21.053C100.682 20.6216 101.112 20.2814 101.684 20.0325C102.263 19.7836 102.971 19.6592 103.808 19.6592C104.379 19.6592 104.942 19.7256 105.497 19.8583C106.052 19.9828 106.541 20.1694 106.963 20.4183L106.205 22.2476C105.377 21.7996 104.574 21.5756 103.795 21.5756C103.307 21.5756 102.951 21.6503 102.727 21.7996C102.504 21.9407 102.392 22.1273 102.392 22.3596C102.392 22.5919 102.524 22.7662 102.789 22.8823C103.054 22.9985 103.481 23.1188 104.069 23.2432C104.731 23.3842 105.278 23.5377 105.708 23.7036C106.147 23.8613 106.524 24.1185 106.839 24.4752C107.162 24.8236 107.323 25.3007 107.323 25.9063C107.323 26.429 107.178 26.9019 106.888 27.325C106.599 27.7481 106.164 28.0882 105.584 28.3454C105.004 28.5943 104.301 28.7188 103.472 28.7188Z" fill="#365214"/>
<path d="M55.8124 36.3719C56.3589 36.3719 56.7763 36.5063 57.0645 36.7751C57.3577 37.0439 57.5042 37.4446 57.5042 37.9772V40.3666H56.826V39.8439C56.7068 40.0281 56.5353 40.1699 56.3117 40.2695C56.0931 40.3641 55.8323 40.4114 55.5292 40.4114C55.087 40.4114 54.7317 40.3043 54.4634 40.0903C54.2 39.8762 54.0684 39.595 54.0684 39.2466C54.0684 38.8981 54.1951 38.6194 54.4485 38.4103C54.7019 38.1962 55.1043 38.0892 55.6559 38.0892H56.7887V37.9474C56.7887 37.6387 56.6993 37.4023 56.5204 37.238C56.3416 37.0738 56.0782 36.9916 55.7304 36.9916C55.4969 36.9916 55.2683 37.0314 55.0447 37.1111C54.8211 37.1858 54.6323 37.2878 54.4783 37.4172L54.1802 36.8796C54.3839 36.7154 54.6273 36.5909 54.9106 36.5063C55.1938 36.4167 55.4944 36.3719 55.8124 36.3719ZM55.6484 39.8588C55.9217 39.8588 56.1577 39.7991 56.3565 39.6796C56.5552 39.5552 56.6993 39.381 56.7887 39.157V38.6044H55.6857C55.0795 38.6044 54.7764 38.8085 54.7764 39.2167C54.7764 39.4158 54.8534 39.5726 55.0075 39.6871C55.1615 39.8016 55.3751 39.8588 55.6484 39.8588Z" fill="#45671D"/>
<path d="M60.9376 36.3719C61.4394 36.3719 61.8369 36.5187 62.1301 36.8124C62.4282 37.1011 62.5773 37.5267 62.5773 38.0892V40.3666H61.8618V38.1714C61.8618 37.7881 61.7698 37.4994 61.586 37.3052C61.4021 37.1111 61.1388 37.014 60.796 37.014C60.4084 37.014 60.1028 37.1285 59.8792 37.3575C59.6556 37.5815 59.5438 37.905 59.5438 38.3282V40.3666H58.8283V36.4092H59.514V37.0066C59.6581 36.8025 59.8519 36.6457 60.0954 36.5362C60.3438 36.4266 60.6245 36.3719 60.9376 36.3719Z" fill="#45671D"/>
<path d="M67.6498 34.8263V40.3666H66.9641V39.7394C66.8051 39.9584 66.6039 40.1251 66.3604 40.2396C66.1169 40.3541 65.8486 40.4114 65.5555 40.4114C65.1729 40.4114 64.83 40.3267 64.5269 40.1575C64.2238 39.9882 63.9853 39.7518 63.8114 39.4482C63.6425 39.1395 63.558 38.7861 63.558 38.3879C63.558 37.9897 63.6425 37.6387 63.8114 37.3351C63.9853 37.0314 64.2238 36.795 64.5269 36.6258C64.83 36.4565 65.1729 36.3719 65.5555 36.3719C65.8387 36.3719 66.0995 36.4266 66.338 36.5362C66.5765 36.6407 66.7753 36.7975 66.9343 37.0066V34.8263H67.6498ZM65.6151 39.7842C65.8635 39.7842 66.0896 39.7269 66.2933 39.6124C66.497 39.493 66.656 39.3287 66.7703 39.1196C66.8846 38.9056 66.9417 38.6617 66.9417 38.3879C66.9417 38.1141 66.8846 37.8727 66.7703 37.6636C66.656 37.4496 66.497 37.2853 66.2933 37.1708C66.0896 37.0563 65.8635 36.9991 65.6151 36.9991C65.3617 36.9991 65.1331 37.0563 64.9294 37.1708C64.7307 37.2853 64.5717 37.4496 64.4524 37.6636C64.3381 37.8727 64.281 38.1141 64.281 38.3879C64.281 38.6617 64.3381 38.9056 64.4524 39.1196C64.5717 39.3287 64.7307 39.493 64.9294 39.6124C65.1331 39.7269 65.3617 39.7842 65.6151 39.7842Z" fill="#45671D"/>
<path d="M73.1144 36.3719C73.6162 36.3719 74.0137 36.5187 74.3069 36.8124C74.605 37.1011 74.7541 37.5267 74.7541 38.0892V40.3666H74.0386V38.1714C74.0386 37.7881 73.9466 37.4994 73.7628 37.3052C73.579 37.1111 73.3156 37.014 72.9728 37.014C72.5852 37.014 72.2796 37.1285 72.056 37.3575C71.8324 37.5815 71.7206 37.905 71.7206 38.3282V40.3666H71.0051V36.4092H71.6908V37.0066C71.8349 36.8025 72.0287 36.6457 72.2722 36.5362C72.5206 36.4266 72.8013 36.3719 73.1144 36.3719Z" fill="#45671D"/>
<path d="M77.7919 40.4114C77.3994 40.4114 77.0466 40.3242 76.7336 40.15C76.4205 39.9758 76.1746 39.7369 75.9957 39.4332C75.8218 39.1246 75.7348 38.7762 75.7348 38.3879C75.7348 37.9996 75.8218 37.6537 75.9957 37.35C76.1746 37.0414 76.4205 36.8025 76.7336 36.6332C77.0466 36.459 77.3994 36.3719 77.7919 36.3719C78.1844 36.3719 78.5347 36.459 78.8428 36.6332C79.1558 36.8025 79.3993 37.0414 79.5732 37.35C79.7521 37.6537 79.8415 37.9996 79.8415 38.3879C79.8415 38.7762 79.7521 39.1246 79.5732 39.4332C79.3993 39.7369 79.1558 39.9758 78.8428 40.15C78.5347 40.3242 78.1844 40.4114 77.7919 40.4114ZM77.7919 39.7842C78.0453 39.7842 78.2714 39.7269 78.4701 39.6124C78.6739 39.493 78.8329 39.3287 78.9471 39.1196C79.0614 38.9056 79.1186 38.6617 79.1186 38.3879C79.1186 38.1141 79.0614 37.8727 78.9471 37.6636C78.8329 37.4496 78.6739 37.2853 78.4701 37.1708C78.2714 37.0563 78.0453 36.9991 77.7919 36.9991C77.5385 36.9991 77.3099 37.0563 77.1062 37.1708C76.9075 37.2853 76.7485 37.4496 76.6292 37.6636C76.5149 37.8727 76.4578 38.1141 76.4578 38.3879C76.4578 38.6617 76.5149 38.9056 76.6292 39.1196C76.7485 39.3287 76.9075 39.493 77.1062 39.6124C77.3099 39.7269 77.5385 39.7842 77.7919 39.7842Z" fill="#45671D"/>
<path d="M83.0521 40.1351C82.9477 40.2247 82.8185 40.2944 82.6645 40.3442C82.5105 40.389 82.3515 40.4114 82.1875 40.4114C81.79 40.4114 81.4819 40.3043 81.2633 40.0903C81.0447 39.8762 80.9354 39.5701 80.9354 39.1719V36.9991H80.2646V36.4092H80.9354V35.5431H81.6509V36.4092H82.7837V36.9991H81.6509V39.142C81.6509 39.3561 81.703 39.5203 81.8074 39.6348C81.9167 39.7493 82.0707 39.8066 82.2695 39.8066C82.4881 39.8066 82.6744 39.7443 82.8285 39.6199L83.0521 40.1351Z" fill="#45671D"/>
<path d="M87.6105 40.4114C87.218 40.4114 86.8652 40.3242 86.5522 40.15C86.2391 39.9758 85.9932 39.7369 85.8143 39.4332C85.6404 39.1246 85.5534 38.7762 85.5534 38.3879C85.5534 37.9996 85.6404 37.6537 85.8143 37.35C85.9932 37.0414 86.2391 36.8025 86.5522 36.6332C86.8652 36.459 87.218 36.3719 87.6105 36.3719C88.003 36.3719 88.3533 36.459 88.6614 36.6332C88.9744 36.8025 89.2179 37.0414 89.3918 37.35C89.5707 37.6537 89.6601 37.9996 89.6601 38.3879C89.6601 38.7762 89.5707 39.1246 89.3918 39.4332C89.2179 39.7369 88.9744 39.9758 88.6614 40.15C88.3533 40.3242 88.003 40.4114 87.6105 40.4114ZM87.6105 39.7842C87.8639 39.7842 88.09 39.7269 88.2887 39.6124C88.4925 39.493 88.6515 39.3287 88.7657 39.1196C88.88 38.9056 88.9372 38.6617 88.9372 38.3879C88.9372 38.1141 88.88 37.8727 88.7657 37.6636C88.6515 37.4496 88.4925 37.2853 88.2887 37.1708C88.09 37.0563 87.8639 36.9991 87.6105 36.9991C87.3571 36.9991 87.1285 37.0563 86.9248 37.1708C86.7261 37.2853 86.5671 37.4496 86.4478 37.6636C86.3335 37.8727 86.2764 38.1141 86.2764 38.3879C86.2764 38.6617 86.3335 38.9056 86.4478 39.1196C86.5671 39.3287 86.7261 39.493 86.9248 39.6124C87.1285 39.7269 87.3571 39.7842 87.6105 39.7842Z" fill="#45671D"/>
<path d="M92.7589 36.3719C93.2607 36.3719 93.6582 36.5187 93.9514 36.8124C94.2495 37.1011 94.3985 37.5267 94.3985 38.0892V40.3666H93.683V38.1714C93.683 37.7881 93.5911 37.4994 93.4073 37.3052C93.2234 37.1111 92.9601 37.014 92.6173 37.014C92.2297 37.014 91.9241 37.1285 91.7005 37.3575C91.4769 37.5815 91.3651 37.905 91.3651 38.3282V40.3666H90.6496V36.4092H91.3353V37.0066C91.4794 36.8025 91.6732 36.6457 91.9167 36.5362C92.1651 36.4266 92.4458 36.3719 92.7589 36.3719Z" fill="#45671D"/>
<path d="M95.7227 34.8263H96.4382V40.3666H95.7227V34.8263Z" fill="#45671D"/>
<path d="M101.3 36.4092L99.3844 40.7623C99.2154 41.1655 99.0167 41.4492 98.7881 41.6135C98.5645 41.7778 98.2937 41.8599 97.9757 41.8599C97.782 41.8599 97.5932 41.8275 97.4093 41.7628C97.2304 41.7031 97.0814 41.6135 96.9621 41.494L97.2677 40.9564C97.4714 41.1506 97.7074 41.2476 97.9757 41.2476C98.1497 41.2476 98.2937 41.2003 98.408 41.1058C98.5273 41.0162 98.6341 40.8594 98.7285 40.6354L98.8552 40.3591L97.1112 36.4092H97.8565L99.2353 39.5751L100.599 36.4092H101.3Z" fill="#45671D"/>
<defs>
<clipPath id="clip0">
<rect width="40.8272" height="44" fill="white" transform="translate(0 0.5)"/>
</clipPath>
</defs>
</svg>
