<svg xmlns="http://www.w3.org/2000/svg" width="16" height="16" fill="none" viewBox="0 0 16 16">
  <path fill="#ACACAC" stroke="#ACACAC" stroke-width=".1" d="M7.15.767C3.62.767.75 3.63.75 7.15s2.87 6.382 6.4 6.382c3.528 0 6.4-2.863 6.4-6.382 0-3.52-2.872-6.383-6.4-6.383zm0 11.624c-2.9 0-5.26-2.351-5.26-5.241 0-2.89 2.36-5.242 5.26-5.242s5.259 2.352 5.259 5.242-2.36 5.241-5.26 5.241z"/>
  <path fill="#ACACAC" stroke="#ACACAC" stroke-width=".1" d="M15.082 14.258h0l-3.418-3.4h0a.57.57 0 00-.807.001h0a.57.57 0 00.002.807h0l3.418 3.4h0a.568.568 0 00.807-.002h0a.57.57 0 00-.002-.806z"/>
</svg>
