<svg width="24" height="24" viewBox="0 0 24 24" fill="none" xmlns="http://www.w3.org/2000/svg">
<path fill-rule="evenodd" clip-rule="evenodd" d="M6.07901 19.3806C6.31661 19.8243 6.78013 20.1015 7.28415 20.1006C7.49655 20.1015 7.70716 20.052 7.89617 19.9566L11.9931 17.8145C12.0039 17.8082 12.0165 17.8046 12.0291 17.8055L16.0981 19.9296C16.2953 20.0358 16.5158 20.0907 16.739 20.0898C16.8101 20.0898 16.8821 20.0835 16.9523 20.0736C17.6849 19.9539 18.1853 19.2681 18.0773 18.5345L17.2853 14.0254C17.279 14.0164 17.279 14.0191 17.279 14.0164C17.279 14.0137 17.2853 14.0074 17.2853 14.0074L20.5884 10.8123C21.0762 10.3416 21.1383 9.58282 20.7324 9.03921C20.5119 8.7548 20.1888 8.56759 19.8324 8.51719L15.2764 7.86017C15.2683 7.86017 15.2593 7.85117 15.2503 7.84217L13.2153 3.75603C12.9858 3.29431 12.516 3.0027 12.0003 3C11.8509 3 11.7015 3.0234 11.5593 3.072C11.2182 3.18811 10.9365 3.43291 10.7763 3.75603L8.744 7.83046C8.744 7.84937 8.7251 7.85747 8.7071 7.85747L4.16194 8.51449C3.88383 8.56129 3.62462 8.68549 3.41491 8.8745C3.14941 9.13461 3 9.49192 3 9.86453C3.0009 10.2182 3.1431 10.5567 3.39601 10.8033L6.72613 14.0074C6.73333 14.0146 6.73603 14.0245 6.73603 14.0344L5.9341 18.5255C5.8864 18.8189 5.9377 19.1196 6.07901 19.3806ZM11.9744 4.32031L11.9834 4.31401H12.0005L12.0086 4.32211C12.0167 4.32211 12.0239 4.32391 12.0302 4.32931C12.0356 4.33471 12.0383 4.34191 12.0374 4.35001L14.0714 8.41725C14.2667 8.81776 14.6466 9.09677 15.0876 9.16428L19.6435 9.8267C19.6516 9.8267 19.6597 9.8285 19.6669 9.8321C19.6714 9.833 19.675 9.833 19.6795 9.8321L19.6885 9.8402L19.6795 9.86L16.3764 13.0632C16.0479 13.371 15.9012 13.8264 15.9885 14.2683L16.7814 18.7514L16.7634 18.7685H16.7445C16.7409 18.7703 16.7373 18.7703 16.7337 18.7685C16.7247 18.7676 16.7157 18.764 16.7076 18.7595H16.6995L12.6494 16.6444C12.455 16.5436 12.239 16.4896 12.0194 16.4905C11.7935 16.4905 11.5703 16.5472 11.3704 16.6534L7.2942 18.791C7.2897 18.7919 7.2843 18.7919 7.2798 18.791C7.2609 18.791 7.2447 18.7784 7.2402 18.7604V18.7424L8.03223 14.2602C8.10603 13.8219 7.96203 13.3746 7.64522 13.0632L4.3151 9.8681C4.3142 9.8546 4.316 9.8429 4.3232 9.8312L4.3781 9.8132L8.90526 9.16428C9.34627 9.09587 9.72519 8.81776 9.92139 8.41725L11.9564 4.34011C11.9609 4.33201 11.9663 4.32481 11.9744 4.32031Z" fill="#616161"/>
</svg>
