<svg width="24" height="24" viewBox="0 0 24 24" fill="none" xmlns="http://www.w3.org/2000/svg">
<path d="M17.75 6.83369V7.08369H18H19C19.7293 7.08369 20.4288 7.37343 20.9445 7.88915C21.4603 8.40488 21.75 9.10435 21.75 9.83369V17.8337C21.75 18.563 21.4603 19.2625 20.9445 19.7782C20.4288 20.294 19.7293 20.5837 19 20.5837H5C4.27065 20.5837 3.57118 20.294 3.05546 19.7782C2.53973 19.2625 2.25 18.563 2.25 17.8337V5.83369C2.25 5.10435 2.53973 4.40488 3.05546 3.88915C3.57118 3.37343 4.27065 3.08369 5 3.08369H15C15.7293 3.08369 16.4288 3.37343 16.9445 3.88915C17.4603 4.40488 17.75 5.10435 17.75 5.83369V6.83369ZM16 7.08369H16.25V6.83369V5.83369C16.25 5.50217 16.1183 5.18423 15.8839 4.94981C15.6495 4.71539 15.3315 4.58369 15 4.58369H5C4.66848 4.58369 4.35054 4.71539 4.11612 4.94981C3.8817 5.18423 3.75 5.50217 3.75 5.83369C3.75 6.16522 3.8817 6.48316 4.11612 6.71758C4.35054 6.952 4.66848 7.08369 5 7.08369H16ZM20 15.0837H20.25V14.8337V12.8337V12.5837H20H19C18.6685 12.5837 18.3505 12.7154 18.1161 12.9498C17.8817 13.1842 17.75 13.5022 17.75 13.8337C17.75 14.1652 17.8817 14.4832 18.1161 14.7176C18.3505 14.952 18.6685 15.0837 19 15.0837H20ZM20 11.0837H20.25V10.8337V9.83369C20.25 9.50217 20.1183 9.18423 19.8839 8.94981C19.6495 8.71539 19.3315 8.58369 19 8.58369L5 8.58369L4.99963 8.58369C4.68744 8.58416 4.37746 8.53146 4.08296 8.42786L3.75 8.31073V8.66369V17.8337C3.75 18.1652 3.8817 18.4832 4.11612 18.7176C4.35054 18.952 4.66848 19.0837 5 19.0837H19C19.3315 19.0837 19.6495 18.952 19.8839 18.7176C20.1183 18.4832 20.25 18.1652 20.25 17.8337V16.8337V16.5837H20H19C18.2707 16.5837 17.5712 16.294 17.0555 15.7782C16.5397 15.2625 16.25 14.563 16.25 13.8337C16.25 13.1043 16.5397 12.4049 17.0555 11.8892C17.5712 11.3734 18.2707 11.0837 19 11.0837H20Z" fill="#616161" stroke="white" stroke-width="0.5"/>
</svg>
